<?xml version="1.0" encoding="utf-8"?>
<!-- Generator: Adobe Illustrator 15.1.0, SVG Export Plug-In . SVG Version: 6.00 Build 0)  -->
<!DOCTYPE svg PUBLIC "-//W3C//DTD SVG 1.1//EN" "http://www.w3.org/Graphics/SVG/1.1/DTD/svg11.dtd">
<svg version="1.1" id="Capa_1" xmlns="http://www.w3.org/2000/svg" xmlns:xlink="http://www.w3.org/1999/xlink" x="0px" y="0px"
	 width="507.343px" height="507.343px" viewBox="-126 -126 507.343 507.343" enable-background="new -126 -126 507.343 507.343"
	 xml:space="preserve">
<g>
	<g>
		<path fill="#1372AD" d="M-16.791,93.445c-6.786,2.605-11.6,8.708-12.561,15.908c-0.951,7.212,2.11,14.354,7.984,18.623
			l64.308,46.793L271.347-4.93L69.378,194.048l87.914,63.97c5.586,4.063,12.808,5.281,19.453,3.27
			c6.639-2.021,11.928-7.062,14.305-13.552L285.095-9.674c0.951-2.615,0.277-5.537-1.704-7.489c-1.97-1.952-4.894-2.565-7.509-1.565
			L-16.791,93.445z"/>
		<path fill="#1372AD" d="M27.665,190.333l0.545,2.981l12.481,68.238c0.932,5.073,4.319,9.323,9.034,11.373
			c4.714,2.041,10.153,1.606,14.472-1.178c17.385-11.214,40.088-26.093,39.474-26.964L27.665,190.333z"/>
	</g>
</g>
<g>
	<g>
		<path fill="#1372AD" d="M381.343,127.672c0,140.102-113.571,253.671-253.672,253.671C-12.43,381.343-126,267.771-126,127.672
			S-12.43-126,127.671-126C267.771-126,381.343-12.429,381.343,127.672z M127.671-105.997
			c-129.042,0-233.668,104.62-233.668,233.669c0,129.048,104.626,233.668,233.668,233.668c129.058,0,233.668-104.62,233.668-233.668
			C361.339-1.377,256.729-105.997,127.671-105.997z"/>
	</g>
</g>
</svg>
