<?xml version="1.0" encoding="utf-8"?>
<!-- Generator: Adobe Illustrator 15.1.0, SVG Export Plug-In  -->
<!DOCTYPE svg PUBLIC "-//W3C//DTD SVG 1.1//EN" "http://www.w3.org/Graphics/SVG/1.1/DTD/svg11.dtd" [
	<!ENTITY ns_flows "http://ns.adobe.com/Flows/1.0/">
]>
<svg version="1.1"
	 xmlns="http://www.w3.org/2000/svg" xmlns:xlink="http://www.w3.org/1999/xlink" xmlns:a="http://ns.adobe.com/AdobeSVGViewerExtensions/3.0/"
	 x="0px" y="0px" width="520px" height="520px" viewBox="-8.852 -5.934 520 520" enable-background="new -8.852 -5.934 520 520"
	 xml:space="preserve">
<defs>
</defs>
<g>
	<g>
		<path fill="#1372AD" d="M509.48,253.808c0,140.245-114.02,253.992-254.744,253.992C114.096,507.8,0,394.053,0,253.808
			C0,113.632,114.096,0,254.736,0C395.46,0,509.48,113.632,509.48,253.808z M254.736,20.064
			c-129.513,0-234.626,104.664-234.626,233.744c0,129.17,105.113,233.935,234.626,233.935
			c129.589,0,234.626-104.765,234.626-233.935C489.362,124.729,384.325,20.064,254.736,20.064z"/>
		<g>
			<g>
				<g>
					<path fill="#1372AD" d="M244.97,199.799c0,0,92.784-4.115,98.124,39.581c0,0,20.095,77.116-21.616,88.936
						c0,0-14.086,2.563-28.66-35.474c0,0-2.518-7.705-20.611-8.739h-23.122h-23.654c-18.505,1.035-21.068,8.739-21.068,8.739
						c-14.908,38.037-29.306,35.474-29.306,35.474c-42.669-11.82-22.103-88.936-22.103-88.936
						C158.605,197.228,244.97,199.799,244.97,199.799 M171.33,249.792c0,7.971,5.781,7.325,5.781,7.325h9.005v10.921
						c0.509,7.074,9.378,6.176,9.378,6.176c8.092,0,7.195-6.306,7.195-6.306v-10.146h11.181c6.297,0,5.659-8.48,5.659-8.48
						c0-8.23-5.917-7.203-5.917-7.203h-11.303l-0.007-9.896c-0.259-5.841-7.074-5.781-7.074-5.781c-7.834,0-7.576,5.911-7.576,5.911
						v9.766h-10.542C170.296,242.08,171.33,249.792,171.33,249.792z M277.714,238.178c-6.708,0-12.147,5.438-12.147,12.146
						c0,6.709,5.438,12.147,12.147,12.147c6.708,0,12.146-5.438,12.146-12.147C289.86,243.616,284.422,238.178,277.714,238.178z
						 M297.215,218.403c-6.708,0.053-12.109,5.529-12.056,12.238c0.045,6.701,5.53,12.101,12.23,12.048
						c6.708-0.046,12.108-5.522,12.056-12.23C309.4,223.75,303.916,218.35,297.215,218.403z M316.884,238.178
						c-6.708,0-12.147,5.438-12.147,12.146c0,6.709,5.439,12.147,12.147,12.147c6.708,0,12.139-5.438,12.139-12.147
						C329.022,243.616,323.592,238.178,316.884,238.178z M297.299,258.189c-6.708,0-12.139,5.431-12.139,12.14
						c0,6.708,5.431,12.146,12.139,12.146c6.708,0,12.147-5.438,12.147-12.146C309.446,263.62,304.007,258.189,297.299,258.189z"/>
				</g>
			</g>
			<g>
				<g>
					<path fill="#1372AD" d="M436.714,351.444c0,20.438-16.573,37.011-37.01,37.011H101.288c-20.438,0-37.011-16.574-37.011-37.011
						V156.362c0-20.445,16.573-37.018,37.011-37.018h298.416c20.438,0,37.01,16.573,37.01,37.018V351.444z M387.368,151.73H102.063
						v204.339h285.305V151.73z M411.158,242.688c-5.901,0-10.686,4.784-10.686,10.686s4.784,10.687,10.686,10.687
						c5.903,0,10.679-4.784,10.679-10.687S417.061,242.688,411.158,242.688z"/>
				</g>
			</g>
			<g>
				<path fill="#1372AD" d="M235.204,199.692c0,0-3.856-26.111,18.247-21.996c22.11,4.107,13.371-24.164,13.371-24.164h5.46
					c0,0,5.765,32.766-16.345,28.659c-22.11-4.107-16.238,17.577-16.238,17.577L235.204,199.692z"/>
			</g>
		</g>
	</g>
</g>
</svg>
