<?xml version="1.0" encoding="utf-8"?>
<!-- Generator: Adobe Illustrator 15.1.0, SVG Export Plug-In  -->
<!DOCTYPE svg PUBLIC "-//W3C//DTD SVG 1.1//EN" "http://www.w3.org/Graphics/SVG/1.1/DTD/svg11.dtd" [
	<!ENTITY ns_flows "http://ns.adobe.com/Flows/1.0/">
]>
<svg version="1.1"
	 xmlns="http://www.w3.org/2000/svg" xmlns:xlink="http://www.w3.org/1999/xlink" xmlns:a="http://ns.adobe.com/AdobeSVGViewerExtensions/3.0/"
	 x="0px" y="0px" width="520px" height="520px" viewBox="-6.666 -2.593 520 520" enable-background="new -6.666 -2.593 520 520"
	 xml:space="preserve">
<defs>
</defs>
<path fill="#1372AD" d="M508.255,254.129c0,140.352-113.775,254.127-254.127,254.127S0,394.48,0,254.129
	C0,113.776,113.775,0,254.128,0S508.255,113.776,508.255,254.129z M254.128,20.04C124.854,20.04,20.04,124.841,20.04,254.129
	c0,129.272,104.814,234.088,234.088,234.088c129.289,0,234.088-104.815,234.088-234.088
	C488.216,124.841,383.417,20.04,254.128,20.04z"/>
<path fill="#1372AD" d="M182.31,233.975c0,0,65.933-131.866,205.124-145.704c0,0,30.932,113.959-98.492,230.358
	c0,0,19.536,35.815-61.048,143.262l-18.18-14.108c0,0,45.04-62.137,24.42-83.57l-35.543,23.876l-18.722-16.006l-23.605,18.992
	l-17.636-16.28l14.652-23.063l-18.722-17.907l15.736-36.358c0,0-18.722-21.981-78.143,39.341l-15.194-14.922
	C56.956,321.885,134.557,224.206,182.31,233.975z"/>
</svg>
