<?xml version="1.0" encoding="utf-8"?>
<!-- Generator: Adobe Illustrator 15.1.0, SVG Export Plug-In  -->
<!DOCTYPE svg PUBLIC "-//W3C//DTD SVG 1.1//EN" "http://www.w3.org/Graphics/SVG/1.1/DTD/svg11.dtd" [
	<!ENTITY ns_flows "http://ns.adobe.com/Flows/1.0/">
]>
<svg version="1.1"
	 xmlns="http://www.w3.org/2000/svg" xmlns:xlink="http://www.w3.org/1999/xlink" xmlns:a="http://ns.adobe.com/AdobeSVGViewerExtensions/3.0/"
	 x="0px" y="0px" width="520px" height="520px" viewBox="-9.917 -6.162 520 520" enable-background="new -9.917 -6.162 520 520"
	 xml:space="preserve">
<defs>
</defs>
<g>
	<g>
		<path fill="#1372AD" d="M507.342,253.672c0,140.1-113.571,253.671-253.671,253.671C113.57,507.343,0,393.772,0,253.672
			C0,113.571,113.57,0,253.671,0C393.771,0,507.342,113.571,507.342,253.672z M253.671,20.003
			c-129.042,0-233.668,104.62-233.668,233.669c0,129.048,104.626,233.667,233.668,233.667
			c129.056,0,233.667-104.619,233.667-233.667C487.338,124.623,382.727,20.003,253.671,20.003z"/>
		<g>
			<path fill="#1372AD" d="M143.91,257.075V144.751h36.797c13.934,0,24.811,2.586,32.591,7.754
				c7.789,5.172,11.698,12.873,11.698,23.103c0,5.347-1.24,10.097-3.712,14.238c-2.465,4.134-6.321,7.26-11.569,9.37
				c6.678,1.438,11.637,4.423,14.855,8.952c3.209,4.522,4.814,9.743,4.814,15.657c0,10.953-3.681,19.235-11.029,24.837
				c-7.354,5.614-17.904,8.412-31.633,8.412H143.91z M169.983,191.581h10.26c6.274,0,10.953-1.095,14.041-3.282
				c3.095-2.183,4.624-5.435,4.624-9.755c0-4.784-1.483-8.271-4.464-10.454c-2.989-2.187-7.56-3.282-13.736-3.282h-10.724V191.581z
				 M169.983,208.858v28.157h16.74c5.56,0,9.721-1.091,12.497-3.278c2.784-2.184,4.168-5.537,4.168-10.067
				c0-4.78-1.224-8.412-3.666-10.876c-2.441-2.468-6.458-3.78-12.071-3.936H186.8H169.983z"/>
		</g>
		<g>
			<path fill="#1372AD" d="M326.634,382.454h-29.701v92.267H270.86v-92.267h-29.161v-20.057h84.935V382.454z"/>
		</g>
		<path fill="#1372AD" d="M309.064,275.39H64.231V126.437h244.833V275.39z M297.306,135.343H75.982v131.148h221.324V135.343z"/>
		<rect x="173.634" y="275.39" fill="#1372AD" width="21.251" height="207.119"/>
		<path fill="#1372AD" d="M341.732,482.132c0,8.84-7.811,16.004-17.448,16.004h-80.227c-9.636,0-17.448-7.164-17.448-16.004V353.206
			c0-8.838,7.812-16.003,17.448-16.003h80.227c9.637,0,17.448,7.165,17.448,16.003V482.132z M332.643,348.984h-96.944v137.371
			h96.944V348.984z"/>
		<path fill="#1372AD" d="M388.629,203.579h18.43c0,0,4.601-67.932,35.116-80.508C442.175,123.071,410.512,118.591,388.629,203.579z
			"/>
		<path fill="#1372AD" d="M474.265,310.951c0,11.147-8.162,20.187-18.209,20.187H332.43c-10.063,0-18.208-9.039-18.208-20.187
			v-83.28c0-11.146,8.146-20.19,18.208-20.19h123.626c10.047,0,18.209,9.044,18.209,20.19V310.951z M385.123,213.147h-26.08v112.323
			h74.286v-20.057h-48.206V213.147z"/>
	</g>
</g>
</svg>
