<?xml version="1.0" encoding="utf-8"?>
<!-- Generator: Adobe Illustrator 15.1.0, SVG Export Plug-In  -->
<!DOCTYPE svg PUBLIC "-//W3C//DTD SVG 1.1//EN" "http://www.w3.org/Graphics/SVG/1.1/DTD/svg11.dtd" [
	<!ENTITY ns_flows "http://ns.adobe.com/Flows/1.0/">
]>
<svg version="1.1"
	 xmlns="http://www.w3.org/2000/svg" xmlns:xlink="http://www.w3.org/1999/xlink" xmlns:a="http://ns.adobe.com/AdobeSVGViewerExtensions/3.0/"
	 x="0px" y="0px" width="520px" height="520px" viewBox="-6.666 -2.593 520 520" enable-background="new -6.666 -2.593 520 520"
	 xml:space="preserve">
<defs>
</defs>
<path fill="#1372AD" d="M426.221,212.593c4.235,13.342,8.711,27.445,8.711,27.445l35.434-68.383l-68.373-33.265
	c0,0,4.526,13.572,8.91,27.384l0,0c-7.188,2.282-108.035,34.291-108.035,34.291l14.901,46.947L426.221,212.593"/>
<path fill="#1372AD" d="M508.255,254.129c0,140.352-113.775,254.127-254.127,254.127S0,394.48,0,254.129
	C0,113.776,113.775,0,254.128,0S508.255,113.776,508.255,254.129z M254.128,20.04C124.854,20.04,20.04,124.841,20.04,254.129
	c0,129.272,104.814,234.088,234.088,234.088c129.289,0,234.088-104.815,234.088-234.088
	C488.216,124.841,383.417,20.04,254.128,20.04z"/>
<polygon fill="#1372AD" points="229.48,112.764 47.948,298.182 62.555,312.482 231.86,123.241 "/>
<polygon fill="#1372AD" points="302.868,353.174 68.078,292.655 62.976,312.45 314.25,377.219 "/>
<path fill="#1372AD" d="M244.088,138.907c0,0,62.272,84,56.772,207.556C300.86,346.463,319.353,218.407,244.088,138.907z"/>
<path fill="#1372AD" d="M290.757,335.655c-4.233,0.556-8.55,0.843-12.935,0.843c-54.288,0-98.296-44.008-98.296-98.295
	c0-39.98,23.868-74.386,58.133-89.743l7.639,10.486c-30.079,13.481-51.031,43.683-51.031,78.779
	c0,47.654,38.632,86.285,86.287,86.285c3.849,0,7.639-0.252,11.354-0.739L290.757,335.655z"/>
<path fill="#1372AD" d="M250.86,170.907c0,0,29.097,43.65,41.048,141.575c0,0-64.048-0.877-77.548-55.075c0,0-5.687-20.5-0.187-32
	l48.187-0.5l-36-34C226.36,190.907,235.606,174.438,250.86,170.907z"/>
</svg>
