<?xml version="1.0" encoding="utf-8"?>
<!-- Generator: Adobe Illustrator 15.1.0, SVG Export Plug-In . SVG Version: 6.00 Build 0)  -->
<!DOCTYPE svg PUBLIC "-//W3C//DTD SVG 1.1//EN" "http://www.w3.org/Graphics/SVG/1.1/DTD/svg11.dtd">
<svg version="1.1" id="Capa_1" xmlns="http://www.w3.org/2000/svg" xmlns:xlink="http://www.w3.org/1999/xlink" x="0px" y="0px"
	 width="520px" height="520px" viewBox="0 0 520 520" enable-background="new 0 0 520 520" xml:space="preserve">
<g>
	<g>
		<path fill="#1372AD" d="M515.342,258.672c0,140.102-113.57,253.671-253.672,253.671C121.57,512.343,8,398.771,8,258.672
			S121.57,5,261.67,5C401.771,5,515.342,118.571,515.342,258.672z M261.67,25.003c-129.041,0-233.667,104.612-233.667,233.669
			c0,129.041,104.626,233.668,233.667,233.668c129.059,0,233.669-104.627,233.669-233.668
			C495.339,129.615,390.729,25.003,261.67,25.003z"/>
	</g>
</g>
<path fill="#1372AD" d="M336.646,306.458h-25.667v-24.962c6.17-7.262,10.938-15.268,14.937-23.298
	c1.563-0.277,3.334-0.791,4.889-1.535c7.15-3.416,13.738-11.74,17.45-22.269c4.284-12.134,3.819-24.895-0.923-31.957
	c0.632-13.106,0.248-49.631-22.715-75.247c-3.809-4.249-8.033-7.93-12.659-11.068c-4.003-24.273-23.994-42.383-48.771-42.383
	c-24.384,0-46.624,17.678-51.01,41.456c-8.734,5.005-16.096,11.49-21.898,19.426c-12.681,17.352-16.659,41.881-11.618,67.816
	c-6.54,6.513-7.947,17.975-3.017,31.957c2.48,7.029,6.293,13.263,10.737,17.558c3.669,3.542,7.704,5.685,11.713,6.303
	c4.19,8.41,9.168,16.788,15.341,24.31v23.894h-26.078c-36.862,0-64.935,63.4-64.935,94.981c0,3.53,2.041,6.891,5.235,8.392
	c49.539,23.255,96.248,30.539,135.119,30.539c20.461,0,38.748-1.958,54.128-4.666c48.435-8.515,78.764-25.331,80.031-26.041
	c2.867-1.611,4.644-4.946,4.644-8.235C401.578,369.854,373.505,306.458,336.646,306.458z M198.972,217.49
	c3.987-4.671,15.327-18.635,22.286-34.06c14.509,15.104,45.612,32.95,111.698,33.045c0.265,2.525,0.063,6.666-1.771,11.859
	c-2.447,6.936-5.979,10.602-7.595,11.659c-1.882-0.618-3.924-0.609-5.823,0.047c-2.38,0.823-4.315,2.599-5.339,4.903
	c-9.803,22.053-29.027,47.808-50.428,47.808c-11.273,0-21.694-7.144-30.648-17.125c4.292,0.815,8.221,1.086,11.483,1.086
	c0.404,0,0.794,0.084,1.177,0.078c2.302,2.966,5.894,4.974,9.94,4.974h16.099c6.947,0,12.527-5.811,12.527-12.762v-3.961
	c0-6.95-5.58-12.912-12.527-12.912h-16.1c-4.593,0-8.6,2.634-10.797,6.308c-3.686,0.063-8.974-0.264-14.636-2.378
	C214.631,250.875,204.567,237.579,198.972,217.49z M263.19,91.945c10.873,0,19.291,5.445,25.209,13.866
	c-7.49-1.887-16.931-2.859-25.575-2.859v0.004c-9.878,0.077-19.259,1.182-27.867,3.266C240.854,97.571,252.176,91.945,263.19,91.945
	z M204.797,145.363c11.42-15.627,30.863-23.998,58.026-24.204v-0.002c19.755,0,37.21,6.098,48.025,18.124
	c16.232,18.053,18.409,45.458,18.351,58.971c-48.218-0.597-73.565-11.229-86.452-20.19c-13.011-9.047-15.706-17.817-16.002-18.907
	c-0.75-4.663-4.933-7.785-9.622-7.438c-4.751,0.356-8.384,4.507-8.384,9.273c0,8.392-6.304,20.446-13.272,30.853
	C192.976,173.401,196.076,157.293,204.797,145.363z M222.555,324.976c5.026,0,8.166-3.771,8.166-8.794V300.26
	c9.877,6.59,19.79,10.696,30.866,10.696c11.408,0,22.226-4.353,32.104-11.295v16.521c0,5.023,3.938,8.794,8.968,8.794h9.746
	L262,364.398l-50.405-39.423H222.555z M313.754,417.814c-40.918,7.193-103.677,9.073-172.794-21.763
	c2.787-25.437,22.715-64.592,41.946-70.091l73.486,57.47c1.649,1.286,3.627,1.93,5.608,1.93c1.979,0,3.96-0.644,5.61-1.93
	l73.486-57.47c19.295,5.521,39.295,44.928,41.972,70.359C373.027,401.137,348.245,411.749,313.754,417.814z"/>
</svg>
