<?xml version="1.0" encoding="utf-8"?>
<!-- Generator: Adobe Illustrator 15.1.0, SVG Export Plug-In  -->
<!DOCTYPE svg PUBLIC "-//W3C//DTD SVG 1.1//EN" "http://www.w3.org/Graphics/SVG/1.1/DTD/svg11.dtd" [
	<!ENTITY ns_flows "http://ns.adobe.com/Flows/1.0/">
]>
<svg version="1.1"
	 xmlns="http://www.w3.org/2000/svg" xmlns:xlink="http://www.w3.org/1999/xlink" xmlns:a="http://ns.adobe.com/AdobeSVGViewerExtensions/3.0/"
	 x="0px" y="0px" width="520px" height="520px" viewBox="-6.666 -2.586 520 520" enable-background="new -6.666 -2.586 520 520"
	 xml:space="preserve">
<defs>
</defs>
<g>
	<g>
		<path fill="#1372AD" d="M508.256,254.127c0,140.353-113.775,254.128-254.129,254.128C113.775,508.255,0,394.479,0,254.127
			C0,113.775,113.775,0,254.127,0C394.481,0,508.256,113.775,508.256,254.127z M254.127,20.04
			C124.854,20.04,20.04,124.854,20.04,254.127c0,129.29,104.814,234.088,234.088,234.088c129.289,0,234.09-104.798,234.09-234.088
			C488.217,124.854,383.417,20.04,254.127,20.04z"/>
		<g>
			<path fill="#1372AD" d="M254.768,401.23h-44.576c0,0-19.779-5.79-20.373-22.783v-23.59c0,0-2.012-15.589-11.598-23.772
				c0,0-34.182-33.587-33.572-77.354c0,0-3.002-101.325,113.912-109.723c0,0,89.348,1.205,103.734,104.328
				c0,0-0.396,49.969-28.375,77.155c0,0-14.797,8.946-16.002,32.368l-0.793,16.794c0,0,3.201,17.982-18.393,26.576H254.768z"/>
			<path fill="#1372AD" d="M201.903,399.889c0,0,3.748,3.597,8.244,4.496h88.434c0,0,5.973-1.98,6.75-4.496v19.935
				c0,0-4.189,28.771-34.775,31.972h-35.172c0,0-27.582-2.394-33.48-32.171V399.889z"/>
			<path fill="#1372AD" d="M264.262,119.871c0,5.714-4.633,10.347-10.348,10.347l0,0c-5.715,0-10.332-4.633-10.332-10.347V66.808
				c0-5.698,4.617-10.332,10.332-10.332l0,0c5.715,0,10.348,4.634,10.348,10.332V119.871z"/>
			<path fill="#1372AD" d="M194.786,131.742c2.852,4.952,1.158,11.277-3.779,14.127l0,0c-4.951,2.865-11.275,1.158-14.141-3.78
				l-26.518-45.961c-2.863-4.952-1.158-11.276,3.781-14.126l0,0c4.951-2.866,11.275-1.158,14.125,3.778L194.786,131.742z"/>
			<path fill="#1372AD" d="M143.963,178.039c4.893,2.955,6.461,9.311,3.49,14.201l0,0c-2.957,4.877-9.311,6.447-14.201,3.491
				L87.869,168.24c-4.892-2.957-6.462-9.312-3.49-14.203l0,0c2.956-4.876,9.312-6.445,14.203-3.49L143.963,178.039z"/>
			<path fill="#1372AD" d="M328.51,142.06c-2.881,4.937-9.205,6.613-14.143,3.733l0,0c-4.938-2.881-6.598-9.205-3.732-14.143
				l26.729-45.839c2.881-4.938,9.205-6.613,14.143-3.733l0,0c4.938,2.88,6.598,9.204,3.734,14.143L328.51,142.06z"/>
			<path fill="#1372AD" d="M374.959,195.7c-4.893,2.957-11.246,1.372-14.203-3.52l0,0c-2.941-4.892-1.371-11.246,3.52-14.188
				l45.443-27.414c4.893-2.942,11.246-1.373,14.188,3.519l0,0c2.957,4.893,1.387,11.247-3.504,14.203L374.959,195.7z"/>
		</g>
	</g>
</g>
</svg>
