<?xml version="1.0" encoding="utf-8"?>
<!-- Generator: Adobe Illustrator 15.1.0, SVG Export Plug-In  -->
<!DOCTYPE svg PUBLIC "-//W3C//DTD SVG 1.1//EN" "http://www.w3.org/Graphics/SVG/1.1/DTD/svg11.dtd" [
	<!ENTITY ns_flows "http://ns.adobe.com/Flows/1.0/">
]>
<svg version="1.1"
	 xmlns="http://www.w3.org/2000/svg" xmlns:xlink="http://www.w3.org/1999/xlink" xmlns:a="http://ns.adobe.com/AdobeSVGViewerExtensions/3.0/"
	 x="0px" y="0px" width="520px" height="520px" viewBox="-8.852 -5.935 520 520" enable-background="new -8.852 -5.935 520 520"
	 xml:space="preserve">
<defs>
</defs>
<g>
	<g>
		<path fill="#1372AD" d="M509.48,253.808c0,140.245-114.02,253.991-254.744,253.991C114.096,507.799,0,394.053,0,253.808
			C0,113.632,114.096,0,254.736,0C395.46,0,509.48,113.632,509.48,253.808z M254.736,20.064
			c-129.513,0-234.626,104.664-234.626,233.743c0,129.171,105.113,233.935,234.626,233.935
			c129.589,0,234.626-104.764,234.626-233.935C489.362,124.729,384.325,20.064,254.736,20.064z"/>
		<g>
			<g>
				<path fill="#1372AD" d="M441.438,343.656c0,20.437-16.573,37.01-37.011,37.01H106.011c-20.438,0-37.01-16.573-37.01-37.01
					V148.573c0-20.444,16.572-37.019,37.01-37.019h298.417c20.438,0,37.011,16.574,37.011,37.019V343.656z M424.576,131.026H85.779
					v201.206h338.796V131.026z"/>
			</g>
		</g>
		<rect x="211.086" y="364.679" fill="#1372AD" width="88.267" height="76.591"/>
		<path fill="#1372AD" d="M336.979,439.255c0,13.233-36.607,23.958-81.755,23.958c-45.156,0-81.755-10.725-81.755-23.958
			c0-13.228,36.6-23.951,81.755-23.951C300.372,415.304,336.979,426.027,336.979,439.255z"/>
		<g>
			<path fill="#1372AD" d="M405.12,181.545c3.202-1.757,7.385-4.069,9.18-0.821l0,0c2.7,3.254,0.03,6.092-3.164,7.849
				l-157.313,92.876c-3.194,1.764-9.522,0.867-12.663-4.808l0,0c-3.134-5.674-0.898-10.252,2.274-12.018L405.12,181.545z"/>
			<path fill="#1372AD" d="M223.575,270.792l13.233,23.859c3.279,5.94,10.292,8.329,15.653,5.362
				c5.377-2.975,7.059-10.192,3.773-16.124l-0.396-0.716c-5.575,2.655-12.587,0.213-15.927-5.826
				c-3.361-6.062-1.711-13.287,3.484-16.604L243,260.021c-3.286-5.939-10.298-8.328-15.661-5.362
				C221.963,257.641,220.282,264.859,223.575,270.792z"/>
			<path fill="#1372AD" d="M235.006,295.222l-13.766-24.825c0,0-28.294-5.286-29.777,26.179c-0.51,10.869-24.453,7.819-24.453,7.819
				S234.094,340.721,235.006,295.222"/>
		</g>
		<path fill="#1372AD" d="M173.468,151.471c0,8.063-6.542,14.604-14.604,14.604H109.54c-8.062,0-14.603-6.541-14.603-14.604l0,0
			c0-8.063,6.542-14.604,14.603-14.604h49.325C166.926,136.867,173.468,143.408,173.468,151.471L173.468,151.471z"/>
		<path fill="#1372AD" d="M173.468,186.519c0,8.063-6.542,14.604-14.604,14.604H109.54c-8.062,0-14.603-6.541-14.603-14.604l0,0
			c0-8.063,6.542-14.603,14.603-14.603h49.325C166.926,171.916,173.468,178.456,173.468,186.519L173.468,186.519z"/>
		<path fill="#1372AD" d="M173.468,222.213c0,8.063-6.542,14.604-14.604,14.604H109.54c-8.062,0-14.603-6.541-14.603-14.604l0,0
			c0-8.062,6.542-14.604,14.603-14.604h49.325C166.926,207.609,173.468,214.151,173.468,222.213L173.468,222.213z"/>
		<path fill="#1372AD" d="M173.468,257.405c0,8.063-6.542,14.604-14.604,14.604H109.54c-8.062,0-14.603-6.541-14.603-14.604l0,0
			c0-8.063,6.542-14.604,14.603-14.604h49.325C166.926,242.802,173.468,249.343,173.468,257.405L173.468,257.405z"/>
		<path fill="#1372AD" d="M162.918,297.663c0,5.575,24.582,8.397,7.545,7.667l-27.092-6.199c-8.063,0-48.435,0.875-48.435-7.188l0,0
			c0-8.062,6.542-14.604,14.603-14.604h49.325c16.588,1.34,4.297,11.409,4.297,19.472L162.918,297.663z"/>
	</g>
</g>
</svg>
