<?xml version="1.0" encoding="utf-8"?>
<!-- Generator: Adobe Illustrator 15.1.0, SVG Export Plug-In  -->
<!DOCTYPE svg PUBLIC "-//W3C//DTD SVG 1.1//EN" "http://www.w3.org/Graphics/SVG/1.1/DTD/svg11.dtd" [
	<!ENTITY ns_flows "http://ns.adobe.com/Flows/1.0/">
]>
<svg version="1.1"
	 xmlns="http://www.w3.org/2000/svg" xmlns:xlink="http://www.w3.org/1999/xlink" xmlns:a="http://ns.adobe.com/AdobeSVGViewerExtensions/3.0/"
	 x="0px" y="0px" width="520px" height="520px" viewBox="-9.92 -6.162 520 520" enable-background="new -9.92 -6.162 520 520"
	 xml:space="preserve">
<defs>
</defs>
<g>
	<g>
		<path fill="#1372AD" d="M507.342,253.672c0,140.101-113.57,253.671-253.672,253.671C113.571,507.343,0,393.772,0,253.672
			S113.571,0,253.67,0C393.772,0,507.342,113.571,507.342,253.672z M253.67,20.003c-129.041,0-233.667,104.627-233.667,233.669
			c0,129.056,104.626,233.668,233.667,233.668c129.058,0,233.669-104.612,233.669-233.668
			C487.339,124.63,382.728,20.003,253.67,20.003z"/>
		<g>
			<path fill="#1372AD" d="M136.792,445.515c0,0-0.091-84.98,45.202-71.336c0,0-10.61-26.528,20.848-39.041
				c0,0,15.729-4.548,25.016,4.358c0,0-9.85-25.198,21.037-36.568c0,0,21.221-8.154,36.768,18.192l-2.845-61.973
				c0,0-20.468-104.421,2.845-106.512c0,0,28.613-20.278,44.913,102.526l17.433,144.794l12.892-42.068
				c0,0-12.512-59.509,26.91-81.878c0,0,21.601-4.929,20.847,16.68l-3.787,33.983c0,0,1.765,12.132,9.85,26.286
				c0,0,4.799,6.313-2.023,28.552l-3.285,35.885C409.41,417.396,288.841,527.293,136.792,445.515z"/>
			<path fill="#1372AD" d="M321.995,159.237c0,19.228-15.577,34.804-34.796,34.804c-19.221,0-34.805-15.576-34.805-34.804
				c0-19.221,15.584-34.797,34.805-34.797C306.417,124.44,321.995,140.017,321.995,159.237z M287.199,127.186
				c-17.707,0-32.061,14.353-32.061,32.052c0,17.706,14.354,32.059,32.061,32.059c17.705,0,32.058-14.353,32.058-32.059
				C319.256,141.538,304.904,127.186,287.199,127.186z"/>
			<g>
				<g>
					<g>
						<g>
							<path fill="#1372AD" d="M168.569,225.02c0.958,0.396,2.716,4.252,2.716,4.252c0.334,1.423-1.361,1.818-1.361,1.818
								s-28.241,0.273-30.006,0c-1.757-0.274-1.399-1.849-1.399-1.849c1.521-3.65,2.646-4.222,2.646-4.222h14.421H168.569z
								 M155.06,228.116h-3.756c0,0-0.289,0.251-0.692,1.833c0,0-0.092,0.685,0.364,0.806c0.465,0.114,7.827,0,7.827,0
								s0.44-0.175,0.351-0.791c0,0-0.457-1.681-0.708-1.848H155.06z"/>
						</g>
					</g>
					<g>
						<g>
							<path fill="#1372AD" d="M168.341,222.8c0,0.607-0.48,1.095-1.08,1.095h-24.742c-0.594,0-1.081-0.487-1.081-1.095v-17.121
								c0-0.602,0.487-1.096,1.081-1.096h24.742c0.6,0,1.08,0.494,1.08,1.096V222.8z M167.292,205.648h-24.788v17.242h24.788
								V205.648z"/>
						</g>
					</g>
					<g>
						<path fill="#1372AD" d="M157.974,218.258c0,0,1.879-0.752,3.201-0.523c0,0,1.302,0.577,2.153,0.41l1.604-0.456
							c0,0,0.252-0.023,0.434-0.205l2.541-3.94c0,0-1.787-2.746-2.495-3.354c0,0-3.165-2.723-4.107-2.122
							c0,0-0.464,0.357-0.046,0.958c0,0-0.6-0.235-0.957,0.138c0,0-0.434,0.296-0.146,1.034c0,0-0.859-0.502-1.301,0.076
							c0,0-0.593,0.563-0.091,1.232c0,0-4.435-1.331-4.571-0.602c0,0-0.601,0.708,1.499,1.286c0,0,2.593,1.064,2.684,1.163
							c0,0,1.218,0.616,2.32,2.357c0,0,0.039,0.146,0.152,0.206c0,0-0.958,0.35-1.354,0.418c0,0-1.826,0.35-1.842,1.56
							C157.654,217.894,157.579,218.229,157.974,218.258z"/>
					</g>
					<g>
						<g>
							<path fill="#1372AD" d="M168.706,219.795c-0.35,0.525-1.019,0.7-1.498,0.381l-1.247-0.814
								c-0.487-0.312-0.602-0.996-0.251-1.529l2.441-3.734c0.342-0.523,1.012-0.699,1.498-0.38l1.247,0.814
								c0.479,0.312,0.594,0.996,0.252,1.528L168.706,219.795z M169.893,214.6c-0.306,0-0.548,0.252-0.548,0.549
								c0,0.304,0.242,0.548,0.548,0.548c0.296,0,0.54-0.244,0.54-0.548C170.433,214.852,170.189,214.6,169.893,214.6z"/>
						</g>
					</g>
					<g>
						<g>
							<path fill="#1372AD" d="M158.042,211.238c0,1.849-1.49,3.347-3.347,3.347c-1.849,0-3.347-1.498-3.347-3.347
								c0-1.855,1.498-3.354,3.347-3.354C156.552,207.884,158.042,209.383,158.042,211.238z M154.696,208.478
								c-1.521,0-2.753,1.239-2.753,2.761s1.231,2.754,2.753,2.754s2.761-1.232,2.761-2.754S156.217,208.478,154.696,208.478z"/>
						</g>
					</g>
					<g>
						<g>
							<path fill="#1372AD" d="M156.666,211.192c0,1.126-0.912,2.046-2.046,2.046s-2.054-0.92-2.054-2.046
								c0-1.133,0.92-2.054,2.054-2.054S156.666,210.06,156.666,211.192z M154.62,209.504c-0.936,0-1.688,0.753-1.688,1.688
								c0,0.928,0.753,1.682,1.688,1.682c0.929,0,1.688-0.754,1.688-1.682C156.308,210.257,155.548,209.504,154.62,209.504z"/>
						</g>
					</g>
					<path fill="#1372AD" d="M178.411,218.875c0,12.976-10.526,23.502-23.502,23.502s-23.502-10.526-23.502-23.502
						s10.526-23.503,23.502-23.503S178.411,205.899,178.411,218.875z M154.909,197.229c-11.956,0-21.646,9.689-21.646,21.646
						c0,11.956,9.689,21.646,21.646,21.646c11.957,0,21.646-9.689,21.646-21.646C176.555,206.918,166.866,197.229,154.909,197.229z"
						/>
				</g>
			</g>
			<g>
				<g>
					<g>
						<g>
							<path fill="#1372AD" d="M209.953,318.558c0.76,0.319,2.168,3.393,2.168,3.393c0.266,1.147-1.088,1.46-1.088,1.46
								s-22.566,0.22-23.981,0c-1.407-0.213-1.11-1.476-1.11-1.476c1.209-2.913,2.107-3.377,2.107-3.377h11.529H209.953z
								 M199.16,321.037h-3.004c0,0-0.236,0.197-0.549,1.46c0,0-0.075,0.54,0.29,0.64c0.365,0.099,6.244,0,6.244,0
								s0.357-0.138,0.29-0.632c0,0-0.366-1.339-0.564-1.468H199.16z"/>
						</g>
					</g>
					<g>
						<g>
							<path fill="#1372AD" d="M209.77,316.785c0,0.479-0.388,0.875-0.867,0.875h-19.768c-0.479,0-0.867-0.396-0.867-0.875v-13.683
								c0-0.479,0.388-0.875,0.867-0.875h19.768c0.479,0,0.867,0.396,0.867,0.875V316.785z M208.933,303.071H189.12v13.79h19.813
								V303.071z"/>
						</g>
					</g>
					<g>
						<path fill="#1372AD" d="M201.488,313.157c0,0,1.506-0.601,2.555-0.427c0,0,1.042,0.472,1.719,0.336l1.286-0.365
							c0,0,0.198-0.016,0.342-0.16l2.031-3.156c0,0-1.423-2.198-1.993-2.678c0,0-2.525-2.175-3.286-1.695c0,0-0.372,0.281-0.03,0.76
							c0,0-0.486-0.183-0.768,0.114c0,0-0.342,0.236-0.122,0.829c0,0-0.677-0.402-1.034,0.062c0,0-0.472,0.448-0.076,0.98
							c0,0-3.537-1.058-3.643-0.479c0,0-0.479,0.563,1.186,1.026c0,0,2.077,0.844,2.153,0.928c0,0,0.974,0.494,1.855,1.886
							c0,0,0.022,0.122,0.122,0.16c0,0-0.77,0.29-1.088,0.335c0,0-1.453,0.289-1.461,1.255
							C201.236,312.868,201.167,313.127,201.488,313.157z"/>
					</g>
					<g>
						<g>
							<path fill="#1372AD" d="M210.059,314.382c-0.282,0.419-0.813,0.563-1.194,0.304l-1.004-0.653
								c-0.381-0.251-0.472-0.792-0.197-1.21l1.955-2.989c0.273-0.426,0.806-0.563,1.193-0.312l0.997,0.654
								c0.388,0.251,0.479,0.799,0.197,1.217L210.059,314.382z M211.002,310.236c-0.235,0-0.434,0.19-0.434,0.434
								s0.198,0.435,0.434,0.435c0.243,0,0.44-0.191,0.44-0.435S211.246,310.236,211.002,310.236z"/>
						</g>
					</g>
					<g>
						<g>
							<path fill="#1372AD" d="M201.541,307.544c0,1.476-1.194,2.67-2.678,2.67c-1.476,0-2.669-1.194-2.669-2.67
								c0-1.483,1.193-2.678,2.669-2.678C200.346,304.866,201.541,306.061,201.541,307.544z M198.863,305.338
								c-1.209,0-2.197,0.989-2.197,2.206s0.988,2.198,2.197,2.198c1.217,0,2.207-0.981,2.207-2.198S200.08,305.338,198.863,305.338
								z"/>
						</g>
					</g>
					<g>
						<g>
							<path fill="#1372AD" d="M200.438,307.506c0,0.905-0.73,1.643-1.636,1.643s-1.635-0.737-1.635-1.643s0.729-1.635,1.635-1.635
								S200.438,306.601,200.438,307.506z M198.802,306.159c-0.745,0-1.347,0.602-1.347,1.347s0.602,1.354,1.347,1.354
								s1.347-0.609,1.347-1.354S199.547,306.159,198.802,306.159z"/>
						</g>
					</g>
					<path fill="#1372AD" d="M217.817,313.645c0,10.374-8.412,18.778-18.779,18.778c-10.374,0-18.778-8.404-18.778-18.778
						c0-10.367,8.404-18.779,18.778-18.779C209.405,294.865,217.817,303.277,217.817,313.645z M199.038,296.348
						c-9.552,0-17.304,7.743-17.304,17.297c0,9.56,7.752,17.303,17.304,17.303c9.554,0,17.296-7.743,17.296-17.303
						C216.333,304.091,208.591,296.348,199.038,296.348z"/>
				</g>
			</g>
			<g>
				<g>
					<g>
						<g>
							<path fill="#1372AD" d="M390.775,197.989c0.958,0.396,2.715,4.252,2.715,4.252c0.335,1.422-1.361,1.817-1.361,1.817
								s-28.24,0.274-30.005,0c-1.757-0.274-1.399-1.855-1.399-1.855c1.521-3.637,2.646-4.214,2.646-4.214h14.421H390.775z
								 M377.275,201.085h-3.766c0,0-0.296,0.25-0.691,1.833c0,0-0.092,0.685,0.365,0.798c0.464,0.122,7.826,0,7.826,0
								s0.441-0.167,0.35-0.791c0,0-0.457-1.673-0.7-1.84H377.275z"/>
						</g>
					</g>
					<g>
						<g>
							<path fill="#1372AD" d="M390.546,195.769c0,0.601-0.479,1.095-1.08,1.095h-24.742c-0.601,0-1.08-0.494-1.08-1.095v-17.122
								c0-0.608,0.479-1.095,1.08-1.095h24.742c0.601,0,1.08,0.486,1.08,1.095V195.769z M389.497,178.617h-24.787v17.242h24.787
								V178.617z"/>
						</g>
					</g>
					<g>
						<path fill="#1372AD" d="M380.179,191.228c0,0,1.887-0.754,3.203-0.525c0,0,1.301,0.578,2.152,0.411l1.611-0.448
							c0,0,0.244-0.031,0.426-0.213l2.541-3.94c0,0-1.779-2.754-2.494-3.362c0,0-3.164-2.715-4.107-2.114
							c0,0-0.472,0.351-0.046,0.959c0,0-0.608-0.244-0.958,0.136c0,0-0.434,0.298-0.145,1.035c0,0-0.859-0.502-1.301,0.084
							c0,0-0.594,0.555-0.091,1.225c0,0-4.435-1.331-4.563-0.602c0,0-0.609,0.708,1.49,1.285c0,0,2.594,1.058,2.685,1.164
							c0,0,1.218,0.608,2.32,2.358c0,0,0.038,0.145,0.151,0.197c0,0-0.957,0.357-1.354,0.426c0,0-1.825,0.351-1.833,1.56
							C379.868,190.862,379.792,191.189,380.179,191.228z"/>
					</g>
					<g>
						<g>
							<path fill="#1372AD" d="M390.904,192.764c-0.342,0.525-1.012,0.691-1.49,0.38l-1.248-0.813
								c-0.486-0.319-0.594-1.004-0.25-1.528l2.441-3.734c0.35-0.525,1.012-0.7,1.498-0.388l1.247,0.82
								c0.486,0.313,0.594,0.997,0.251,1.521L390.904,192.764z M392.09,187.569c-0.296,0-0.54,0.251-0.54,0.548
								c0,0.304,0.244,0.547,0.54,0.547c0.305,0,0.548-0.243,0.548-0.547C392.638,187.82,392.395,187.569,392.09,187.569z"/>
						</g>
					</g>
					<g>
						<g>
							<path fill="#1372AD" d="M380.249,184.2c0,1.855-1.491,3.346-3.339,3.346c-1.856,0-3.347-1.49-3.347-3.346
								c0-1.849,1.49-3.34,3.347-3.34C378.757,180.86,380.249,182.352,380.249,184.2z M376.91,181.446
								c-1.529,0-2.762,1.231-2.762,2.754c0,1.528,1.232,2.761,2.762,2.761c1.521,0,2.753-1.232,2.753-2.761
								C379.663,182.678,378.431,181.446,376.91,181.446z"/>
						</g>
					</g>
					<g>
						<g>
							<path fill="#1372AD" d="M378.872,184.154c0,1.133-0.913,2.054-2.046,2.054s-2.054-0.921-2.054-2.054
								c0-1.126,0.921-2.046,2.054-2.046S378.872,183.028,378.872,184.154z M376.826,182.466c-0.936,0-1.688,0.76-1.688,1.688
								c0,0.936,0.753,1.688,1.688,1.688c0.928,0,1.688-0.752,1.688-1.688C378.514,183.226,377.753,182.466,376.826,182.466z"/>
						</g>
					</g>
					<path fill="#1372AD" d="M400.617,191.835c0,12.983-10.519,23.511-23.502,23.511c-12.976,0-23.502-10.527-23.502-23.511
						c0-12.975,10.526-23.494,23.502-23.494C390.098,168.341,400.617,178.86,400.617,191.835z M377.115,170.197
						c-11.949,0-21.646,9.689-21.646,21.638c0,11.957,9.697,21.655,21.646,21.655c11.956,0,21.646-9.698,21.646-21.655
						C398.761,179.887,389.071,170.197,377.115,170.197z"/>
				</g>
			</g>
			<g>
				<g>
					<g>
						<g>
							<path fill="#1372AD" d="M466.4,242.171c0.951,0.396,2.715,4.252,2.715,4.252c0.328,1.431-1.369,1.818-1.369,1.818
								s-28.24,0.281-29.997,0c-1.765-0.267-1.399-1.849-1.399-1.849c1.521-3.643,2.639-4.222,2.639-4.222h14.429H466.4z
								 M452.892,245.267h-3.765c0,0-0.289,0.252-0.685,1.834c0,0-0.092,0.684,0.365,0.806c0.455,0.114,7.818,0,7.818,0
								s0.449-0.175,0.357-0.791c0,0-0.456-1.673-0.707-1.849H452.892z"/>
						</g>
					</g>
					<g>
						<g>
							<path fill="#1372AD" d="M466.164,239.958c0,0.601-0.479,1.088-1.079,1.088H440.35c-0.601,0-1.081-0.487-1.081-1.088V222.83
								c0-0.602,0.48-1.096,1.081-1.096h24.734c0.601,0,1.079,0.494,1.079,1.096V239.958z M465.123,222.8h-24.795v17.25h24.795
								V222.8z"/>
						</g>
					</g>
					<g>
						<path fill="#1372AD" d="M455.805,235.41c0,0,1.879-0.753,3.202-0.525c0,0,1.301,0.586,2.152,0.411l1.605-0.449
							c0,0,0.25-0.03,0.434-0.212l2.532-3.94c0,0-1.78-2.745-2.495-3.354c0,0-3.164-2.723-4.107-2.122c0,0-0.464,0.357-0.046,0.958
							c0,0-0.601-0.235-0.958,0.138c0,0-0.426,0.296-0.145,1.034c0,0-0.852-0.502-1.301,0.084c0,0-0.585,0.555-0.083,1.225
							c0,0-4.435-1.324-4.571-0.602c0,0-0.601,0.708,1.49,1.286c0,0,2.594,1.064,2.693,1.163c0,0,1.217,0.616,2.319,2.358
							c0,0,0.03,0.145,0.145,0.205c0,0-0.95,0.357-1.354,0.426c0,0-1.816,0.35-1.832,1.552
							C455.486,235.045,455.41,235.379,455.805,235.41z"/>
					</g>
					<g>
						<g>
							<path fill="#1372AD" d="M466.53,236.946c-0.343,0.524-1.012,0.7-1.499,0.38l-1.247-0.813
								c-0.479-0.312-0.593-0.996-0.251-1.521l2.449-3.742c0.342-0.524,1.012-0.699,1.498-0.38l1.24,0.813
								c0.486,0.32,0.6,0.996,0.25,1.529L466.53,236.946z M467.716,231.751c-0.305,0-0.548,0.252-0.548,0.556
								c0,0.296,0.243,0.548,0.548,0.548c0.304,0,0.547-0.252,0.547-0.548C468.263,232.003,468.02,231.751,467.716,231.751z"/>
						</g>
					</g>
					<g>
						<g>
							<path fill="#1372AD" d="M455.874,228.39c0,1.849-1.499,3.347-3.347,3.347s-3.347-1.498-3.347-3.347
								c0-1.848,1.499-3.347,3.347-3.347S455.874,226.542,455.874,228.39z M452.527,225.629c-1.521,0-2.754,1.239-2.754,2.761
								s1.232,2.754,2.754,2.754s2.754-1.232,2.754-2.754S454.048,225.629,452.527,225.629z"/>
						</g>
					</g>
					<g>
						<g>
							<path fill="#1372AD" d="M454.497,228.344c0,1.134-0.92,2.054-2.046,2.054c-1.133,0-2.054-0.92-2.054-2.054
								c0-1.133,0.921-2.053,2.054-2.053C453.577,226.291,454.497,227.211,454.497,228.344z M452.451,226.655
								c-0.936,0-1.688,0.753-1.688,1.688s0.753,1.682,1.688,1.682c0.928,0,1.682-0.746,1.682-1.682
								S453.378,226.655,452.451,226.655z"/>
						</g>
					</g>
					<path fill="#1372AD" d="M476.242,236.026c0,12.976-10.525,23.502-23.502,23.502c-12.983,0-23.502-10.526-23.502-23.502
						c0-12.977,10.519-23.503,23.502-23.503C465.716,212.523,476.242,223.05,476.242,236.026z M452.74,214.38
						c-11.956,0-21.646,9.689-21.646,21.646c0,11.956,9.689,21.646,21.646,21.646c11.949,0,21.646-9.689,21.646-21.646
						C474.386,224.069,464.689,214.38,452.74,214.38z"/>
				</g>
			</g>
			<g>
				<g>
					<g>
						<g>
							<path fill="#1372AD" d="M397.095,104.003c0.775,0.319,2.213,3.469,2.213,3.469c0.274,1.163-1.117,1.49-1.117,1.49
								s-23.039,0.221-24.477,0c-1.438-0.229-1.141-1.514-1.141-1.514c1.24-2.974,2.16-3.445,2.16-3.445H386.5H397.095z
								 M386.074,106.528h-3.064c0,0-0.243,0.205-0.57,1.498c0,0-0.076,0.556,0.296,0.654c0.381,0.099,6.39,0,6.39,0
								s0.357-0.145,0.289-0.646c0,0-0.373-1.369-0.578-1.506H386.074z"/>
						</g>
					</g>
					<g>
						<g>
							<path fill="#1372AD" d="M396.906,102.193c0,0.493-0.396,0.897-0.883,0.897h-20.186c-0.488,0-0.883-0.404-0.883-0.897V88.221
								c0-0.494,0.395-0.89,0.883-0.89h20.186c0.486,0,0.883,0.396,0.883,0.89V102.193z M396.054,88.198h-20.232v14.07h20.232
								V88.198z"/>
						</g>
					</g>
					<g>
						<path fill="#1372AD" d="M388.447,98.489c0,0,1.537-0.616,2.617-0.435c0,0,1.057,0.479,1.749,0.335l1.315-0.364
							c0,0,0.198-0.023,0.351-0.176l2.076-3.209c0,0-1.452-2.244-2.038-2.738c0,0-2.579-2.229-3.354-1.734
							c0,0-0.38,0.289-0.038,0.783c0,0-0.486-0.197-0.775,0.114c0,0-0.357,0.244-0.122,0.844c0,0-0.7-0.41-1.057,0.062
							c0,0-0.487,0.456-0.076,1.004c0,0-3.621-1.088-3.728-0.494c0,0-0.494,0.578,1.218,1.049c0,0,2.114,0.867,2.19,0.951
							c0,0,0.996,0.502,1.901,1.925c0,0,0.022,0.121,0.114,0.167c0,0-0.783,0.289-1.104,0.342c0,0-1.49,0.289-1.498,1.278
							C388.189,98.192,388.128,98.459,388.447,98.489z"/>
					</g>
					<g>
						<g>
							<path fill="#1372AD" d="M397.202,99.736c-0.281,0.434-0.829,0.57-1.224,0.312l-1.02-0.661
								c-0.389-0.259-0.479-0.814-0.198-1.248l1.993-3.042c0.281-0.434,0.82-0.57,1.217-0.319l1.02,0.669
								c0.395,0.259,0.486,0.814,0.205,1.24L397.202,99.736z M398.167,95.499c-0.243,0-0.448,0.206-0.448,0.449
								s0.205,0.449,0.448,0.449c0.251,0,0.449-0.206,0.449-0.449S398.418,95.499,398.167,95.499z"/>
						</g>
					</g>
					<g>
						<g>
							<path fill="#1372AD" d="M388.508,92.754c0,1.514-1.225,2.738-2.73,2.738c-1.513,0-2.73-1.225-2.73-2.738
								c0-1.506,1.218-2.73,2.73-2.73C387.284,90.023,388.508,91.248,388.508,92.754z M385.778,90.503
								c-1.247,0-2.251,1.012-2.251,2.251s1.004,2.252,2.251,2.252c1.239,0,2.244-1.013,2.244-2.252S387.017,90.503,385.778,90.503z
								"/>
						</g>
					</g>
					<g>
						<g>
							<path fill="#1372AD" d="M387.382,92.716c0,0.921-0.746,1.673-1.673,1.673c-0.921,0-1.666-0.752-1.666-1.673
								s0.745-1.673,1.666-1.673C386.636,91.043,387.382,91.795,387.382,92.716z M385.709,91.347c-0.761,0-1.377,0.616-1.377,1.369
								c0,0.761,0.616,1.377,1.377,1.377s1.377-0.616,1.377-1.377C387.086,91.963,386.47,91.347,385.709,91.347z"/>
						</g>
					</g>
					<path fill="#1372AD" d="M405.12,98.99c0,10.588-8.588,19.175-19.167,19.175c-10.596,0-19.182-8.587-19.182-19.175
						c0-10.595,8.586-19.174,19.182-19.174C396.532,79.816,405.12,88.396,405.12,98.99z M385.953,81.33
						c-9.758,0-17.669,7.902-17.669,17.66c0,9.751,7.911,17.661,17.669,17.661c9.751,0,17.66-7.91,17.66-17.661
						C403.613,89.232,395.704,81.33,385.953,81.33z"/>
				</g>
			</g>
			<g>
				<g>
					<g>
						<g>
							<path fill="#1372AD" d="M225.4,116.941c0.775,0.326,2.213,3.476,2.213,3.476c0.274,1.164-1.109,1.482-1.109,1.482
								s-23.038,0.222-24.477,0c-1.438-0.221-1.141-1.514-1.141-1.514c1.24-2.974,2.152-3.444,2.152-3.444h11.773H225.4z
								 M214.378,119.466h-3.064c0,0-0.243,0.205-0.563,1.498c0,0-0.076,0.556,0.297,0.654c0.372,0.099,6.381,0,6.381,0
								s0.365-0.137,0.297-0.646c0,0-0.38-1.361-0.586-1.506H214.378z"/>
						</g>
					</g>
					<g>
						<g>
							<path fill="#1372AD" d="M225.217,115.138c0,0.495-0.396,0.891-0.882,0.891h-20.194c-0.486,0-0.882-0.396-0.882-0.891v-13.979
								c0-0.486,0.396-0.882,0.882-0.882h20.194c0.486,0,0.882,0.396,0.882,0.882V115.138z M224.358,101.143h-20.231v14.063h20.231
								V101.143z"/>
						</g>
					</g>
					<g>
						<path fill="#1372AD" d="M216.759,111.427c0,0,1.537-0.609,2.609-0.426c0,0,1.064,0.479,1.757,0.334l1.316-0.372
							c0,0,0.197-0.016,0.35-0.168l2.069-3.217c0,0-1.453-2.244-2.039-2.738c0,0-2.578-2.221-3.354-1.727
							c0,0-0.373,0.289-0.031,0.783c0,0-0.494-0.198-0.783,0.106c0,0-0.35,0.244-0.122,0.852c0,0-0.692-0.41-1.058,0.062
							c0,0-0.486,0.456-0.076,1.004c0,0-3.611-1.088-3.727-0.494c0,0-0.486,0.578,1.217,1.049c0,0,2.123,0.867,2.198,0.951
							c0,0,0.997,0.502,1.894,1.917c0,0,0.023,0.129,0.123,0.175c0,0-0.784,0.289-1.111,0.343c0,0-1.482,0.288-1.49,1.27
							C216.501,111.13,216.433,111.396,216.759,111.427z"/>
					</g>
					<g>
						<g>
							<path fill="#1372AD" d="M225.506,112.682c-0.281,0.426-0.821,0.57-1.217,0.312l-1.019-0.669
								c-0.396-0.251-0.487-0.807-0.206-1.24l1.993-3.05c0.281-0.434,0.829-0.57,1.225-0.312l1.019,0.669
								c0.396,0.251,0.479,0.806,0.198,1.24L225.506,112.682z M226.48,108.445c-0.25,0-0.448,0.197-0.448,0.448
								c0,0.244,0.198,0.441,0.448,0.441c0.244,0,0.441-0.197,0.441-0.441C226.921,108.643,226.724,108.445,226.48,108.445z"/>
						</g>
					</g>
					<g>
						<g>
							<path fill="#1372AD" d="M216.821,105.699c0,1.506-1.225,2.73-2.738,2.73c-1.506,0-2.73-1.225-2.73-2.73
								c0-1.514,1.225-2.73,2.73-2.73C215.596,102.969,216.821,104.186,216.821,105.699z M214.083,103.448
								c-1.239,0-2.251,1.011-2.251,2.251c0,1.239,1.012,2.251,2.251,2.251s2.251-1.012,2.251-2.251
								C216.333,104.459,215.322,103.448,214.083,103.448z"/>
						</g>
					</g>
					<g>
						<g>
							<path fill="#1372AD" d="M215.688,105.662c0,0.92-0.745,1.672-1.666,1.672c-0.928,0-1.673-0.752-1.673-1.672
								c0-0.921,0.745-1.674,1.673-1.674C214.943,103.988,215.688,104.741,215.688,105.662z M214.022,104.284
								c-0.761,0-1.377,0.616-1.377,1.378c0,0.76,0.616,1.376,1.377,1.376s1.376-0.616,1.376-1.376
								C215.398,104.9,214.783,104.284,214.022,104.284z"/>
						</g>
					</g>
					<path fill="#1372AD" d="M233.431,111.929c0,10.595-8.586,19.174-19.174,19.174s-19.174-8.579-19.174-19.174
						c0-10.588,8.586-19.175,19.174-19.175S233.431,101.341,233.431,111.929z M214.257,94.268c-9.758,0-17.66,7.91-17.66,17.661
						c0,9.758,7.902,17.66,17.66,17.66c9.751,0,17.661-7.902,17.661-17.66C231.918,102.178,224.008,94.268,214.257,94.268z"/>
				</g>
			</g>
			<g>
				<g>
					<g>
						<g>
							<path fill="#1372AD" d="M87.969,145.866c0.616,0.251,1.75,2.729,1.75,2.729c0.22,0.921-0.883,1.18-0.883,1.18
								s-18.163,0.167-19.296,0c-1.134-0.183-0.897-1.202-0.897-1.202c0.981-2.342,1.704-2.707,1.704-2.707h9.271H87.969z
								 M79.284,147.851h-2.419c0,0-0.19,0.168-0.441,1.179c0,0-0.061,0.441,0.236,0.525c0.289,0.076,5.027,0,5.027,0
								s0.281-0.114,0.229-0.518c0,0-0.289-1.072-0.457-1.187H79.284z"/>
						</g>
					</g>
					<g>
						<g>
							<path fill="#1372AD" d="M87.825,144.436c0,0.389-0.312,0.708-0.692,0.708H71.213c-0.388,0-0.699-0.319-0.699-0.708v-11.013
								c0-0.389,0.312-0.708,0.699-0.708h15.919c0.38,0,0.692,0.319,0.692,0.708V144.436z M87.148,133.4H71.199v11.097h15.949V133.4
								z"/>
						</g>
					</g>
					<g>
						<path fill="#1372AD" d="M81.163,141.516c0,0,1.201-0.487,2.054-0.335c0,0,0.836,0.373,1.384,0.259l1.034-0.289
							c0,0,0.16-0.016,0.282-0.13l1.627-2.54c0,0-1.148-1.771-1.605-2.16c0,0-2.03-1.749-2.639-1.361c0,0-0.304,0.229-0.031,0.616
							c0,0-0.388-0.152-0.616,0.084c0,0-0.273,0.189-0.091,0.669c0,0-0.548-0.327-0.837,0.053c0,0-0.38,0.357-0.061,0.792
							c0,0-2.844-0.86-2.936-0.389c0,0-0.396,0.456,0.958,0.829c0,0,1.666,0.677,1.726,0.745c0,0,0.784,0.396,1.491,1.514
							c0,0,0.031,0.092,0.099,0.137c0,0-0.616,0.221-0.867,0.267c0,0-1.179,0.229-1.179,1.004
							C80.957,141.279,80.904,141.492,81.163,141.516z"/>
					</g>
					<g>
						<g>
							<path fill="#1372AD" d="M88.054,142.504c-0.221,0.335-0.647,0.449-0.958,0.244l-0.807-0.525
								c-0.304-0.205-0.38-0.639-0.16-0.981l1.575-2.403c0.221-0.334,0.655-0.449,0.958-0.251l0.806,0.532
								c0.313,0.205,0.381,0.639,0.161,0.981L88.054,142.504z M88.822,139.165c-0.198,0-0.35,0.159-0.35,0.35s0.152,0.35,0.35,0.35
								c0.189,0,0.35-0.159,0.35-0.35S89.011,139.165,88.822,139.165z"/>
						</g>
					</g>
					<g>
						<g>
							<path fill="#1372AD" d="M81.2,136.997c0,1.187-0.966,2.153-2.152,2.153c-1.187,0-2.153-0.967-2.153-2.153
								c0-1.194,0.966-2.152,2.153-2.152C80.234,134.845,81.2,135.803,81.2,136.997z M79.048,135.225
								c-0.982,0-1.772,0.792-1.772,1.772c0,0.981,0.791,1.772,1.772,1.772c0.98,0,1.779-0.791,1.779-1.772
								C80.828,136.017,80.029,135.225,79.048,135.225z"/>
						</g>
					</g>
					<g>
						<g>
							<path fill="#1372AD" d="M80.318,136.967c0,0.73-0.593,1.316-1.315,1.316c-0.73,0-1.324-0.586-1.324-1.316
								c0-0.729,0.594-1.315,1.324-1.315C79.725,135.651,80.318,136.237,80.318,136.967z M79.002,135.879
								c-0.602,0-1.088,0.487-1.088,1.088c0,0.602,0.486,1.088,1.088,1.088c0.593,0,1.08-0.486,1.08-1.088
								C80.082,136.366,79.596,135.879,79.002,135.879z"/>
						</g>
					</g>
					<path fill="#1372AD" d="M94.305,141.91c0,8.352-6.769,15.121-15.121,15.121s-15.121-6.77-15.121-15.121
						c0-8.351,6.769-15.12,15.121-15.12S94.305,133.56,94.305,141.91z M79.185,127.984c-7.689,0-13.926,6.236-13.926,13.926
						c0,7.69,6.237,13.927,13.926,13.927s13.927-6.236,13.927-13.927C93.111,134.221,86.874,127.984,79.185,127.984z"/>
				</g>
			</g>
			<g>
				<g>
					<g>
						<g>
							<path fill="#1372AD" d="M54.618,283.448c0.616,0.26,1.75,2.738,1.75,2.738c0.212,0.921-0.883,1.172-0.883,1.172
								s-18.163,0.182-19.296,0c-1.134-0.175-0.905-1.187-0.905-1.187c0.981-2.344,1.704-2.724,1.704-2.724h9.279H54.618z
								 M45.932,285.448h-2.419c0,0-0.19,0.16-0.441,1.18c0,0-0.069,0.441,0.228,0.518c0.296,0.076,5.035,0,5.035,0
								s0.282-0.114,0.229-0.51c0,0-0.296-1.08-0.457-1.188H45.932z"/>
						</g>
					</g>
					<g>
						<g>
							<path fill="#1372AD" d="M54.474,282.026c0,0.388-0.313,0.707-0.7,0.707H37.862c-0.388,0-0.699-0.319-0.699-0.707v-11.014
								c0-0.388,0.312-0.699,0.699-0.699h15.912c0.387,0,0.7,0.312,0.7,0.699V282.026z M53.796,270.99h-15.95v11.098h15.95V270.99z"
								/>
						</g>
					</g>
					<g>
						<path fill="#1372AD" d="M47.802,279.105c0,0,1.21-0.486,2.062-0.342c0,0,0.829,0.381,1.384,0.273l1.034-0.297
							c0,0,0.16-0.016,0.274-0.129l1.635-2.532c0,0-1.148-1.78-1.605-2.168c0,0-2.039-1.75-2.647-1.362c0,0-0.297,0.229-0.022,0.616
							c0,0-0.388-0.151-0.624,0.084c0,0-0.274,0.197-0.091,0.669c0,0-0.548-0.319-0.829,0.054c0,0-0.388,0.357-0.062,0.791
							c0,0-2.852-0.852-2.943-0.388c0,0-0.38,0.456,0.966,0.821c0,0,1.666,0.685,1.727,0.753c0,0,0.783,0.396,1.498,1.514
							c0,0,0.015,0.099,0.091,0.137c0,0-0.616,0.221-0.875,0.267c0,0-1.171,0.228-1.179,1.004
							C47.597,278.87,47.552,279.083,47.802,279.105z"/>
					</g>
					<g>
						<g>
							<path fill="#1372AD" d="M54.702,280.094c-0.221,0.335-0.654,0.449-0.958,0.244l-0.806-0.524
								c-0.312-0.198-0.38-0.64-0.16-0.981l1.574-2.403c0.22-0.335,0.654-0.449,0.958-0.244l0.807,0.525
								c0.304,0.197,0.38,0.639,0.16,0.974L54.702,280.094z M55.469,276.756c-0.198,0-0.357,0.159-0.357,0.35
								c0,0.197,0.16,0.35,0.357,0.35c0.19,0,0.35-0.152,0.35-0.35C55.819,276.915,55.66,276.756,55.469,276.756z"/>
						</g>
					</g>
					<g>
						<g>
							<path fill="#1372AD" d="M47.848,274.588c0,1.187-0.966,2.152-2.152,2.152c-1.194,0-2.153-0.966-2.153-2.152
								c0-1.194,0.958-2.153,2.153-2.153C46.882,272.435,47.848,273.394,47.848,274.588z M45.696,272.815
								c-0.981,0-1.772,0.791-1.772,1.772c0,0.98,0.791,1.772,1.772,1.772c0.981,0,1.772-0.792,1.772-1.772
								C47.468,273.606,46.677,272.815,45.696,272.815z"/>
						</g>
					</g>
					<g>
						<g>
							<path fill="#1372AD" d="M46.966,274.557c0,0.731-0.593,1.316-1.324,1.316c-0.73,0-1.316-0.585-1.316-1.316
								c0-0.729,0.586-1.315,1.316-1.315C46.373,273.241,46.966,273.827,46.966,274.557z M45.643,273.47
								c-0.6,0-1.08,0.487-1.08,1.087c0,0.602,0.479,1.089,1.08,1.089c0.601,0,1.087-0.487,1.087-1.089
								C46.73,273.957,46.244,273.47,45.643,273.47z"/>
						</g>
					</g>
					<path fill="#1372AD" d="M60.946,279.501c0,8.344-6.769,15.113-15.113,15.113c-8.351,0-15.12-6.77-15.12-15.113
						c0-8.351,6.77-15.12,15.12-15.12C54.177,264.381,60.946,271.15,60.946,279.501z M45.833,265.575
						c-7.689,0-13.926,6.236-13.926,13.926s6.236,13.927,13.926,13.927c7.69,0,13.927-6.237,13.927-13.927
						S53.522,265.575,45.833,265.575z"/>
				</g>
			</g>
			<polygon fill="#1372AD" points="448.861,213.368 446.503,214.585 395.338,115.519 397.705,114.294 			"/>
			<polygon fill="#1372AD" points="432.615,245.328 433.353,247.884 216.683,310.138 215.954,307.59 			"/>
			<polygon fill="#1372AD" points="367,98.162 367.211,100.801 233.41,111.662 233.197,109.008 			"/>
			<polygon fill="#1372AD" points="195.357,108.43 196.003,111.001 92.427,137.24 91.772,134.662 			"/>
			<polygon fill="#1372AD" points="254.121,161.907 253.832,164.546 93.104,146.748 93.4,144.102 			"/>
			
				<rect x="112.208" y="142.819" transform="matrix(0.7042 -0.71 0.71 0.7042 -92.8642 133.3024)" fill="#1372AD" width="2.657" height="70.546"/>
			<polygon fill="#1372AD" points="191.462,297.983 189.051,299.116 161.389,240.384 163.792,239.259 			"/>
			<polygon fill="#1372AD" points="58.421,272.603 57.181,270.253 135.559,228.938 136.792,231.295 			"/>
			<polygon fill="#1372AD" points="176.395,210.439 175.353,207.998 256.82,173.179 257.87,175.62 			"/>
			<polygon fill="#1372AD" points="382.674,170.296 380.028,170.061 384.82,116.546 387.466,116.789 			"/>
			<polygon fill="#1372AD" points="397.24,202.134 398.48,199.784 436.722,220.092 435.474,222.441 			"/>
			<polygon fill="#1372AD" points="317.134,172.145 317.957,169.611 356.617,182.146 355.803,184.671 			"/>
			<polygon fill="#1372AD" points="318.603,147.029 317.134,144.816 371.228,108.946 372.696,111.168 			"/>
			<polygon fill="#1372AD" points="228.61,123.847 229.811,121.481 261.893,137.85 260.683,140.215 			"/>
			<polygon fill="#1372AD" points="49.75,265.293 47.164,264.692 72.59,155.054 75.184,155.655 			"/>
			<polygon fill="#1372AD" points="58.725,286.696 59.402,284.126 181.454,316.504 181.865,319.417 			"/>
			<polygon fill="#1372AD" points="214.501,303.315 212.159,302.083 271.735,188.877 274.671,189.105 			"/>
		</g>
	</g>
</g>
</svg>
