<?xml version="1.0" encoding="utf-8"?>
<!-- Generator: Adobe Illustrator 15.1.0, SVG Export Plug-In  -->
<!DOCTYPE svg PUBLIC "-//W3C//DTD SVG 1.1//EN" "http://www.w3.org/Graphics/SVG/1.1/DTD/svg11.dtd" [
	<!ENTITY ns_flows "http://ns.adobe.com/Flows/1.0/">
]>
<svg version="1.1"
	 xmlns="http://www.w3.org/2000/svg" xmlns:xlink="http://www.w3.org/1999/xlink" xmlns:a="http://ns.adobe.com/AdobeSVGViewerExtensions/3.0/"
	 x="0px" y="0px" width="520px" height="520px" viewBox="-6.666 -2.593 520 520" enable-background="new -6.666 -2.593 520 520"
	 xml:space="preserve">
<defs>
</defs>
<g>
	<g>
		<path fill="#1372AD" d="M508.255,254.129c0,140.352-113.775,254.127-254.127,254.127S0,394.48,0,254.129
			C0,113.776,113.775,0,254.128,0S508.255,113.776,508.255,254.129z M254.128,20.04C124.854,20.04,20.04,124.841,20.04,254.129
			c0,129.272,104.814,234.088,234.088,234.088c129.289,0,234.088-104.815,234.088-234.088
			C488.216,124.841,383.417,20.04,254.128,20.04z"/>
		<g>
			<path fill="#1372AD" d="M321.378,298.092c0,35.92-29.122,65.026-65.041,65.026c-35.903,0-65.024-29.106-65.024-65.026
				c0-35.917,29.122-65.039,65.024-65.039C292.256,233.053,321.378,262.175,321.378,298.092z"/>
		</g>
		<path fill="#1372AD" d="M330.628,464.262c0,0-21.7-95.778-76.667-95.778c-34.76,0-64.187,44.833-74.154,97.24
			C179.807,465.724,256.353,497.421,330.628,464.262z"/>
		<path fill="#1372AD" d="M225.311,375.646c0.29-0.168-0.656-0.107-0.976-0.138c-28.695-3.626-56.247,22.538-69.947,64.751
			c0,0,9.234,10.089,22.919,16.503C177.307,456.762,183.784,399.098,225.311,375.646z"/>
		<path fill="#1372AD" d="M284.682,377.322c-0.273-0.153,0.625-0.107,0.945-0.153c27.552-3.749,54.449,22.265,68.241,64.4
			c0,0-8.732,10.119-21.808,16.595C332.061,458.164,319.26,394.42,284.682,377.322z"/>
		<polygon fill="#1372AD" points="161.58,196.707 179.807,316.334 189.879,196.707 		"/>
		<path fill="#1372AD" d="M407.357,142.09c0,39.5-32.018,71.519-71.518,71.519H195.381c-39.5,0-71.518-32.019-71.518-71.519l0,0
			c0-39.515,32.018-71.533,71.518-71.533H335.84C375.339,70.557,407.357,102.575,407.357,142.09L407.357,142.09z M297.803,161.841
			c0,11.23,0,23.102,0,23.102l43.691-43.69l-44.209-42.03c0,0,0.167,11.477,0.167,23.103l0,0c-6.049,0-90.932,0-90.932,0v39.517
			H297.803"/>
	</g>
</g>
</svg>
