<?xml version="1.0" encoding="utf-8"?>
<!-- Generator: Adobe Illustrator 15.1.0, SVG Export Plug-In  -->
<!DOCTYPE svg PUBLIC "-//W3C//DTD SVG 1.1//EN" "http://www.w3.org/Graphics/SVG/1.1/DTD/svg11.dtd" [
	<!ENTITY ns_flows "http://ns.adobe.com/Flows/1.0/">
]>
<svg version="1.1"
	 xmlns="http://www.w3.org/2000/svg" xmlns:xlink="http://www.w3.org/1999/xlink" xmlns:a="http://ns.adobe.com/AdobeSVGViewerExtensions/3.0/"
	 x="0px" y="0px" width="520px" height="520px" viewBox="-9.917 -6.162 520 520" enable-background="new -9.917 -6.162 520 520"
	 xml:space="preserve">
<defs>
</defs>
<g>
	<g>
		<g>
			<g>
				<defs>
					<polygon id="SVGID_6_" points="161.457,206.884 184.55,206.884 283.622,206.884 283.972,363.112 291.708,386.786 
						361.91,383.812 361.827,270.161 430.735,270.394 430.735,296.835 439.277,317.378 480.151,56.082 145.759,41.301 					"/>
				</defs>
				<clipPath id="SVGID_10_">
					<use xlink:href="#SVGID_6_"  overflow="visible"/>
				</clipPath>
			</g>
		</g>
	</g>
	<g>
		<path fill="#1372AD" d="M507.343,253.672c0,140.101-113.572,253.671-253.672,253.671C113.57,507.343,0,393.772,0,253.672
			S113.57,0,253.671,0C393.771,0,507.343,113.571,507.343,253.672z M253.671,20.003c-129.042,0-233.668,104.62-233.668,233.669
			c0,129.048,104.626,233.668,233.668,233.668c129.057,0,233.668-104.62,233.668-233.668
			C487.339,124.623,382.728,20.003,253.671,20.003z"/>
		<g>
			<g>
				<g>
					<path fill="#1372AD" d="M280.383,349.669c0,12.336-10.002,22.342-22.339,22.342H77.876c-12.336,0-22.346-10.006-22.346-22.342
						V231.885c0-12.341,10.01-22.346,22.346-22.346h180.168c12.337,0,22.339,10.005,22.339,22.346V349.669z M250.59,229.09H78.34
						v123.37h172.25V229.09z M264.958,284.004c-3.559,0-6.457,2.89-6.457,6.45c0,3.566,2.898,6.453,6.457,6.453
						c3.566,0,6.442-2.887,6.442-6.453C271.4,286.894,268.524,284.004,264.958,284.004z"/>
				</g>
			</g>
			<g>
				<defs>
					<polygon id="SVGID_4_" points="161.457,206.884 184.55,206.884 283.622,206.884 283.972,363.112 291.708,386.786 
						361.91,383.812 361.827,270.161 430.735,270.394 430.735,296.835 439.277,317.378 480.151,56.082 145.759,41.301 					"/>
				</defs>
				<clipPath id="SVGID_11_">
					<use xlink:href="#SVGID_4_"  overflow="visible"/>
				</clipPath>
				<g clip-path="url(#SVGID_11_)">
					<rect x="268.723" y="290.131" fill="#1372AD" width="62.817" height="54.503"/>
					<g>
						<g>
							<g>
								<path fill="#1372AD" d="M432.651,275.166c0,14.546-11.788,26.339-26.33,26.339H193.949
									c-14.534,0-26.331-11.793-26.331-26.339V136.34c0-14.55,11.797-26.344,26.331-26.344h212.372
									c14.542,0,26.33,11.794,26.33,26.344V275.166z M420.658,123.851H179.552v143.188h241.106V123.851z"/>
							</g>
						</g>
						<path fill="#1372AD" d="M358.319,343.2c0,9.416-26.049,17.049-58.185,17.049c-32.126,0-58.177-7.633-58.177-17.049
							c0-9.412,26.051-17.044,58.177-17.044C332.271,326.156,358.319,333.788,358.319,343.2z"/>
					</g>
				</g>
			</g>
			<g>
				<g>
					<path fill="#1372AD" d="M368.01,380.274c-2.008-0.004-3.651-1.928-3.651-4.35l-0.029-99.527c0-2.41,1.643-4.335,3.65-4.339
						l57.082-0.022c2.031,0,3.658,1.928,3.658,4.343l0.038,99.526c0,2.423-1.62,4.352-3.65,4.354L368.01,380.274z M425.306,368.403
						l-0.039-92.074l-57.485,0.016l0.03,92.076L425.306,368.403z M404.77,373.849c0-1.18-0.974-2.134-2.152-2.134h-12.155
						c-1.179,0-2.137,0.954-2.137,2.134l0,0c0,1.183,0.958,2.137,2.137,2.137h12.155C403.796,375.985,404.77,375.031,404.77,373.849
						L404.77,373.849z"/>
				</g>
			</g>
			<path fill="#1372AD" d="M361.78,277.984c0,0-0.563-7.827,6.541-7.804c7.104,0.03-1.817-1.552-1.817-1.552h-7.537L361.78,277.984z
				"/>
			<path fill="#1372AD" d="M354.814,285.43"/>
			<path fill="#1372AD" d="M426.689,270.378c0,0,3.674,0.765,4.046,6.389h1.415l-0.783-8.567L426.689,270.378z"/>
		</g>
	</g>
	<g>
		<g>
			<g>
				<defs>
					<polygon id="SVGID_2_" points="161.457,206.884 184.55,206.884 283.622,206.884 283.972,363.112 291.708,386.786 
						361.91,383.812 361.827,270.161 430.735,270.394 430.735,296.835 439.277,317.378 480.151,56.082 145.759,41.301 					"/>
				</defs>
				<clipPath id="SVGID_12_">
					<use xlink:href="#SVGID_2_"  overflow="visible"/>
				</clipPath>
			</g>
		</g>
	</g>
</g>
</svg>
