<?xml version="1.0" encoding="utf-8"?>
<!-- Generator: Adobe Illustrator 15.1.0, SVG Export Plug-In  -->
<!DOCTYPE svg PUBLIC "-//W3C//DTD SVG 1.1//EN" "http://www.w3.org/Graphics/SVG/1.1/DTD/svg11.dtd" [
	<!ENTITY ns_flows "http://ns.adobe.com/Flows/1.0/">
]>
<svg version="1.1"
	 xmlns="http://www.w3.org/2000/svg" xmlns:xlink="http://www.w3.org/1999/xlink" xmlns:a="http://ns.adobe.com/AdobeSVGViewerExtensions/3.0/"
	 x="0px" y="0px" width="520px" height="520px" viewBox="-9.917 -6.158 520 520" enable-background="new -9.917 -6.158 520 520"
	 xml:space="preserve">
<defs>
</defs>
<g>
	<g>
		<path fill="#1372AD" d="M507.342,253.672c0,140.107-113.571,253.679-253.671,253.679C113.57,507.351,0,393.779,0,253.672
			C0,113.571,113.57,0,253.671,0C393.771,0,507.342,113.571,507.342,253.672z M253.671,20.004
			c-129.042,0-233.668,104.619-233.668,233.668s104.626,233.675,233.668,233.675c129.056,0,233.667-104.626,233.667-233.675
			S382.727,20.004,253.671,20.004z"/>
		<g>
			<path fill="#1372AD" d="M253.595,217.749c0,57.79-46.844,104.634-104.634,104.634c-57.789,0-104.642-46.844-104.642-104.634
				c0-57.789,46.853-104.642,104.642-104.642C206.75,113.107,253.595,159.96,253.595,217.749z M148.96,145.334
				c-39.991,0-72.415,32.424-72.415,72.415c0,39.992,32.424,72.408,72.415,72.408c39.985,0,72.408-32.416,72.408-72.408
				C221.368,177.758,188.945,145.334,148.96,145.334z"/>
			<path fill="#1372AD" d="M170.439,117.184l-2.205-24.133l-17.958-1.034l-6.031,24.285
				C144.245,116.302,152.931,119.839,170.439,117.184z"/>
			<path fill="#1372AD" d="M136.282,115.678l-9.705-22.209l-17.364,4.678l1.924,24.947
				C111.137,123.094,120.492,123.71,136.282,115.678z"/>
			<path fill="#1372AD" d="M104.094,125.36l-16.482-17.774l-14.854,10.146l10.04,22.917
				C82.797,140.648,91.833,138.146,104.094,125.36z"/>
			<path fill="#1372AD" d="M76.933,145.288L55.689,133.62l-10.899,14.308l16.764,18.58
				C61.554,166.508,69.334,161.283,76.933,145.288z"/>
			<path fill="#1372AD" d="M57.439,173.666l-23.86-4.275l-5.757,17.037l21.813,12.261C49.635,198.688,55.348,191.25,57.439,173.666z
				"/>
			<path fill="#1372AD" d="M47.171,205.625l-23.852,4.313l0.54,17.972l24.719,3.887C48.578,231.797,51.339,222.845,47.171,205.625z"
				/>
			<path fill="#1372AD" d="M49.104,239.853l-21.282,11.599l6.176,16.893l24.681-4.093C58.679,264.251,58.481,254.881,49.104,239.853
				z"/>
			<path fill="#1372AD" d="M61.828,271.227l-16.323,17.911l11.356,13.949l21.988-11.934C78.85,291.153,75.602,282.36,61.828,271.227
				z"/>
			<path fill="#1372AD" d="M84.364,296.873l-10.29,21.943l14.976,9.956l17.47-17.904C106.52,310.868,100.815,303.429,84.364,296.873
				z"/>
			<path fill="#1372AD" d="M113.068,314.39l-2.167,24.148l17.478,4.236l10.299-22.81C138.678,319.965,130.775,314.93,113.068,314.39
				z"/>
			<path fill="#1372AD" d="M146.192,320.208l5.94,23.502l17.897-1.779l2.183-24.933
				C172.212,316.998,163.084,314.869,146.192,320.208z"/>
			<path fill="#1372AD" d="M178.996,316.291l13.759,19.95l16.155-7.918l-6.655-24.118
				C202.255,304.205,192.953,305.392,178.996,316.291z"/>
			<path fill="#1372AD" d="M208.91,300.387l19.152,14.854l13.006-12.428l-13.646-20.978
				C227.423,281.836,218.919,285.776,208.91,300.387z"/>
			<path fill="#1372AD" d="M232.618,276.87l23.046,7.521l8.047-16.078l-19.913-15.151
				C243.798,253.162,237.12,259.733,232.618,276.87z"/>
			<path fill="#1372AD" d="M247.13,246.127l24.232,0.053l2.7-17.782l-23.608-8.275C250.454,220.122,246.126,228.443,247.13,246.127z
				"/>
			<path fill="#1372AD" d="M250.72,212.775l23.068-7.438l-2.92-17.745l-25.016-0.57C245.852,187.021,244.3,196.263,250.72,212.775z"
				/>
			<path fill="#1372AD" d="M244.407,180.214l18.893-15.188l-9.074-15.531l-23.571,8.404
				C230.655,157.898,232.519,167.087,244.407,180.214z"/>
			<path fill="#1372AD" d="M227.149,151.129l13.302-20.262l-13.417-11.979l-19.836,15.25
				C207.199,134.138,211.792,142.307,227.149,151.129z"/>
			<path fill="#1372AD" d="M201.289,129.339l6.169-23.441l-16.528-7.097l-13.964,20.764
				C176.965,119.564,183.925,125.848,201.289,129.339z"/>
		</g>
		<g>
			<path fill="#1372AD" d="M345.314,370.771c0,35.832-29.047,64.878-64.878,64.878c-35.823,0-64.87-29.046-64.87-64.878
				c0-35.823,29.046-64.87,64.87-64.87C316.267,305.901,345.314,334.948,345.314,370.771z M280.436,325.882
				c-24.787,0-44.89,20.103-44.89,44.89c0,24.796,20.103,44.897,44.89,44.897c24.796,0,44.897-20.102,44.897-44.897
				C325.333,345.984,305.231,325.882,280.436,325.882z"/>
			<path fill="#1372AD" d="M293.753,308.427l-1.361-14.961l-11.134-0.646l-3.742,15.06
				C277.516,307.879,282.9,310.068,293.753,308.427z"/>
			<path fill="#1372AD" d="M272.579,307.491l-6.017-13.768l-10.77,2.898l1.194,15.471
				C256.987,312.093,262.79,312.473,272.579,307.491z"/>
			<path fill="#1372AD" d="M252.622,313.5l-10.215-11.021l-9.211,6.29l6.223,14.208C239.418,322.977,245.022,321.425,252.622,313.5z
				"/>
			<path fill="#1372AD" d="M235.782,325.852l-13.166-7.233l-6.762,8.869l10.398,11.521
				C226.252,339.009,231.074,335.77,235.782,325.852z"/>
			<path fill="#1372AD" d="M223.696,343.443l-14.794-2.646l-3.566,10.557l13.523,7.606
				C218.859,358.96,222.403,354.343,223.696,343.443z"/>
			<path fill="#1372AD" d="M217.33,363.258l-14.785,2.677l0.334,11.143l15.325,2.411
				C218.204,379.488,219.916,373.936,217.33,363.258z"/>
			<path fill="#1372AD" d="M218.532,384.478l-13.196,7.195l3.825,10.473l15.303-2.54
				C224.464,399.605,224.343,393.795,218.532,384.478z"/>
			<path fill="#1372AD" d="M226.419,403.934l-10.116,11.104l7.035,8.647l13.637-7.4C236.976,416.285,234.96,410.832,226.419,403.934
				z"/>
			<path fill="#1372AD" d="M240.391,419.83l-6.381,13.606l9.287,6.168l10.831-11.097C254.127,428.508,250.59,423.898,240.391,419.83
				z"/>
			<path fill="#1372AD" d="M258.188,430.691l-1.346,14.968l10.838,2.632l6.381-14.147
				C274.062,434.144,269.164,431.025,258.188,430.691z"/>
			<path fill="#1372AD" d="M278.725,434.296l3.681,14.573l11.097-1.103l1.354-15.455
				C294.857,432.312,289.198,430.987,278.725,434.296z"/>
			<path fill="#1372AD" d="M299.063,431.87l8.526,12.367l10.017-4.906l-4.122-14.953
				C313.484,424.378,307.711,425.116,299.063,431.87z"/>
			<path fill="#1372AD" d="M317.606,422.013l11.873,9.203l8.062-7.704l-8.458-13.007
				C329.083,410.505,323.812,412.954,317.606,422.013z"/>
			<path fill="#1372AD" d="M332.308,407.433l14.284,4.662l4.989-9.972l-12.344-9.393C339.237,392.73,335.1,396.807,332.308,407.433z
				"/>
			<path fill="#1372AD" d="M341.306,388.372l15.022,0.03L358,377.374l-14.633-5.127
				C343.367,372.247,340.683,377.404,341.306,388.372z"/>
			<path fill="#1372AD" d="M343.526,367.691l14.307-4.609l-1.811-11.006l-15.516-0.35
				C340.507,351.727,339.549,357.454,343.526,367.691z"/>
			<path fill="#1372AD" d="M339.617,347.506l11.713-9.417l-5.628-9.629l-14.611,5.211
				C331.091,333.671,332.247,339.367,339.617,347.506z"/>
			<path fill="#1372AD" d="M328.916,329.472l8.245-12.564l-8.313-7.424l-12.299,9.454
				C316.549,318.938,319.393,324.003,328.916,329.472z"/>
			<path fill="#1372AD" d="M312.883,315.964l3.826-14.535l-10.246-4.396l-8.663,12.869
				C297.8,309.902,302.121,313.796,312.883,315.964z"/>
		</g>
		<g>
			<path fill="#1372AD" d="M463.844,224.123c0,45.924-37.215,83.14-83.132,83.14c-45.909,0-83.125-37.216-83.125-83.14
				c0-45.897,37.216-83.117,83.125-83.117C426.628,141.006,463.844,178.226,463.844,224.123z M380.712,166.607
				c-31.762,0-57.523,25.765-57.523,57.516c0,31.776,25.762,57.546,57.523,57.546c31.77,0,57.531-25.77,57.531-57.546
				C438.243,192.372,412.481,166.607,380.712,166.607z"/>
			<path fill="#1372AD" d="M397.78,144.242l-1.75-19.171l-14.268-0.829l-4.792,19.297
				C376.97,143.539,383.868,146.345,397.78,144.242z"/>
			<path fill="#1372AD" d="M370.642,143.044l-7.705-17.642l-13.805,3.712l1.528,19.824
				C350.661,148.938,358.1,149.426,370.642,143.044z"/>
			<path fill="#1372AD" d="M345.07,150.741l-13.089-14.12l-11.805,8.059l7.971,18.205
				C328.147,162.885,335.335,160.898,345.07,150.741z"/>
			<path fill="#1372AD" d="M323.493,166.569l-16.87-9.268l-8.671,11.363l13.326,14.763
				C311.278,183.428,317.462,179.278,323.493,166.569z"/>
			<path fill="#1372AD" d="M308.007,189.117l-18.961-3.393l-4.571,13.53l17.334,9.743
				C301.809,208.998,306.349,203.073,308.007,189.117z"/>
			<path fill="#1372AD" d="M299.847,214.494l-18.947,3.43l0.427,14.292l19.638,3.08
				C300.964,235.296,303.162,228.177,299.847,214.494z"/>
			<path fill="#1372AD" d="M301.39,241.692l-16.916,9.218l4.906,13.425l19.608-3.255C308.988,261.08,308.836,253.634,301.39,241.692
				z"/>
			<path fill="#1372AD" d="M311.49,266.617l-12.96,14.23l9.013,11.09l17.479-9.493C325.021,282.444,322.436,275.471,311.49,266.617z
				"/>
			<path fill="#1372AD" d="M329.395,286.985l-8.176,17.448l11.903,7.895l13.881-14.207
				C347.002,298.121,342.47,292.211,329.395,286.985z"/>
			<path fill="#1372AD" d="M352.205,300.904l-1.727,19.182l13.888,3.37l8.176-18.125
				C372.543,305.331,366.268,301.338,352.205,300.904z"/>
			<path fill="#1372AD" d="M378.521,305.528l4.716,18.673l14.215-1.407l1.734-19.798C399.187,302.996,391.938,301.3,378.521,305.528
				z"/>
			<path fill="#1372AD" d="M404.579,302.425l10.922,15.852l12.839-6.298l-5.278-19.159
				C423.062,292.819,415.661,293.77,404.579,302.425z"/>
			<path fill="#1372AD" d="M428.34,289.8l15.211,11.789l10.336-9.88l-10.838-16.672C443.049,275.037,436.296,278.178,428.34,289.8z"
				/>
			<path fill="#1372AD" d="M447.18,271.104l18.308,5.985l6.389-12.793l-15.82-12.024
				C456.056,252.272,450.754,257.498,447.18,271.104z"/>
			<path fill="#1372AD" d="M458.71,246.682l19.25,0.038l2.144-14.132l-18.755-6.571C461.35,226.017,457.912,232.626,458.71,246.682z
				"/>
			<path fill="#1372AD" d="M461.554,220.191l18.331-5.911l-2.32-14.111l-19.881-0.445
				C457.684,199.724,456.459,207.07,461.554,220.191z"/>
			<path fill="#1372AD" d="M456.542,194.323l15.014-12.071l-7.211-12.34l-18.726,6.678
				C445.62,176.59,447.104,183.896,456.542,194.323z"/>
			<path fill="#1372AD" d="M442.836,171.209l10.565-16.102l-10.656-9.512l-15.76,12.116
				C426.986,157.712,430.629,164.2,442.836,171.209z"/>
			<path fill="#1372AD" d="M422.286,153.897l4.906-18.623l-13.128-5.632l-11.104,16.489
				C402.959,146.132,408.496,151.122,422.286,153.897z"/>
		</g>
		<g>
			<path fill="#1372AD" d="M298.234,376.278h-23.571v16.695h28.264v11.941h-43.81v-66.933h43.855v11.957h-28.309v14.383h23.571
				V376.278z"/>
		</g>
		<g>
			<path fill="#1372AD" d="M422.598,233.007c0,12.139-3.849,22.163-11.546,30.043c-7.697,7.864-17.752,11.805-30.173,11.805
				c-12.504,0-22.643-3.94-30.408-11.805c-7.758-7.88-11.645-17.904-11.645-30.043V215.27c0-12.104,3.872-22.106,11.606-30.009
				c7.751-7.898,17.859-11.851,30.31-11.851c12.375,0,22.445,3.952,30.211,11.851c7.758,7.902,11.645,17.904,11.645,30.009V233.007z
				 M399.78,215.132c0-7.046-1.666-12.827-4.982-17.341c-3.316-4.518-8.009-6.773-14.056-6.773c-6.176,0-10.915,2.248-14.185,6.739
				c-3.271,4.496-4.914,10.283-4.914,17.375v17.875c0,7.134,1.666,12.96,4.981,17.479c3.316,4.517,8.07,6.769,14.253,6.769
				c6.009,0,10.656-2.252,13.957-6.769c3.293-4.519,4.944-10.345,4.944-17.479V215.132z"/>
		</g>
		<g>
			<path fill="#1372AD" d="M163.465,244.56c0-3.925-1.286-6.937-3.856-9.028c-2.571-2.091-7.233-4.327-13.987-6.692
				c-13.653-4.435-23.799-9.157-30.432-14.178c-6.625-5.013-9.941-12.23-9.941-21.662c0-9.218,3.857-16.679,11.568-22.376
				c7.713-5.697,17.517-8.542,29.412-8.542c12.55,0,22.658,2.937,30.317,8.808c7.659,5.873,11.363,14.147,11.112,24.834
				l-0.152,0.456h-24.795c0-5.194-1.415-8.959-4.237-11.303c-2.822-2.342-7.081-3.514-12.778-3.514c-4.631,0-8.291,1.134-10.96,3.4
				c-2.67,2.267-4.009,5.065-4.009,8.389c0,3.226,1.377,5.812,4.123,7.751c2.746,1.938,7.872,4.373,15.386,7.294
				c12.748,3.78,22.399,8.396,28.956,13.835c6.548,5.445,9.827,12.907,9.827,22.384c0,9.675-3.78,17.25-11.341,22.72
				c-7.56,5.468-17.592,8.198-30.089,8.198c-12.451,0-23-2.936-31.64-8.808c-8.648-5.871-12.839-15.105-12.588-27.708l0.153-0.456
				h24.871c0,6.404,1.574,10.952,4.724,13.652c3.148,2.692,7.978,4.039,14.481,4.039c5.34,0,9.325-1.058,11.942-3.172
				C162.157,250.759,163.465,247.99,163.465,244.56z"/>
		</g>
	</g>
</g>
</svg>
