<?xml version="1.0" encoding="utf-8"?>
<!-- Generator: Adobe Illustrator 15.1.0, SVG Export Plug-In  -->
<!DOCTYPE svg PUBLIC "-//W3C//DTD SVG 1.1//EN" "http://www.w3.org/Graphics/SVG/1.1/DTD/svg11.dtd" [
	<!ENTITY ns_flows "http://ns.adobe.com/Flows/1.0/">
]>
<svg version="1.1"
	 xmlns="http://www.w3.org/2000/svg" xmlns:xlink="http://www.w3.org/1999/xlink" xmlns:a="http://ns.adobe.com/AdobeSVGViewerExtensions/3.0/"
	 x="0px" y="0px" width="520px" height="520px" viewBox="-8.852 -5.935 520 520" enable-background="new -8.852 -5.935 520 520"
	 xml:space="preserve">
<defs>
</defs>
<g>
	<g>
		<g>
			<g>
				<g>
					<path fill="#1372AD" d="M443.879,299.839c-4.685,7.165-13.842,9.454-20.398,5.195l-17.076-11.098
						c-6.678-4.358-8.146-13.721-3.445-20.848l33.428-50.959c4.785-7.173,13.844-9.576,20.514-5.294l17.075,11.203
						c6.663,4.222,8.115,13.577,3.438,20.734L443.879,299.839z M460.125,228.959c-4.053,0-7.393,3.431-7.393,7.492
						c0,4.138,3.34,7.454,7.393,7.454c4.176,0,7.5-3.316,7.5-7.454C467.625,232.39,464.301,228.959,460.125,228.959z"/>
				</g>
			</g>
			<g>
				<g>
					<path fill="#1372AD" d="M297.055,278.877c0,0,25.822-10.269,43.841-7.157c0,0,17.806,7.902,29.466,5.598l22.086-6.107
						c0,0,3.317-0.441,5.812-2.936l34.782-53.751c0,0-24.354-37.55-34.15-45.863c0,0-43.315-37.033-56.215-28.834
						c0,0-6.465,4.754-0.632,13.06c0,0-8.329-3.316-13.12,1.886c0,0-5.94,4.039-1.984,14.079c0,0-11.768-6.83-17.807,1.163
						c0,0-8.115,7.599-1.239,16.726c0,0-60.71-18.171-62.482-8.222c0,0-8.336,9.651,20.407,17.539c0,0,35.512,14.428,36.759,15.873
						c0,0,16.657,8.321,31.755,32.181c0,0,0.517,1.993,2.076,2.7c0,0-13.105,4.883-18.514,5.818c0,0-25,4.776-25.105,21.281
						C292.789,273.91,291.738,278.367,297.055,278.877z"/>
				</g>
				<g>
					<g>
						<path fill="#1372AD" d="M297.99,182.981c0,25.351-20.398,45.681-45.703,45.681c-25.411,0-45.825-20.33-45.825-45.681
							c0-25.243,20.414-45.573,45.825-45.573C277.592,137.408,297.99,157.738,297.99,182.981z M252.287,145.424
							c-20.939,0-37.809,16.794-37.809,37.558c0,20.879,16.869,37.665,37.809,37.665c20.817,0,37.68-16.786,37.68-37.665
							C289.967,162.218,273.104,145.424,252.287,145.424z"/>
					</g>
				</g>
				<g>
					<g>
						<path fill="#1372AD" d="M279.144,182.351c0,15.471-12.497,28.035-28.005,28.035c-15.531,0-28.119-12.564-28.119-28.035
							c0-15.349,12.588-27.913,28.119-27.913C266.646,154.438,279.144,167.002,279.144,182.351z M251.139,159.327
							c-12.809,0-23.122,10.367-23.122,23.023c0,12.777,10.313,23.046,23.122,23.046c12.702,0,23.121-10.269,23.121-23.046
							C274.26,169.694,263.841,159.327,251.139,159.327z"/>
					</g>
				</g>
			</g>
		</g>
		<path fill="#1372AD" d="M509.48,253.808c0,140.245-114.021,253.991-254.744,253.991C114.096,507.799,0,394.053,0,253.808
			C0,113.632,114.096,0,254.736,0C395.46,0,509.48,113.632,509.48,253.808z M254.736,20.064
			c-129.513,0-234.626,104.664-234.626,233.743c0,129.171,105.113,233.935,234.626,233.935
			c129.589,0,234.626-104.764,234.626-233.935C489.362,124.729,384.325,20.064,254.736,20.064z"/>
		<g>
			<g>
				<path fill="#1372AD" d="M127.193,421.076c-6.282-0.008-11.425-6.031-11.425-13.592l-0.105-311.103
					c0-7.546,5.142-13.569,11.424-13.577l178.441-0.061c6.344,0,11.423,6.031,11.423,13.576l0.115,311.104
					c0,7.568-5.08,13.592-11.424,13.6L127.193,421.076z M306.273,383.96l-0.099-287.814l-179.72,0.053l0.1,287.822L306.273,383.96z
					 M242.064,400.989c0-3.682-3.012-6.678-6.716-6.678h-37.976c-3.697,0-6.709,2.996-6.709,6.678l0,0
					c0,3.696,3.012,6.678,6.709,6.678h37.976C239.053,407.667,242.064,404.686,242.064,400.989L242.064,400.989z"/>
			</g>
		</g>
		<path fill="#1372AD" d="M182.268,170.212c0,4.479-3.65,8.146-8.162,8.146h-29.1c-4.51,0-8.161-3.666-8.161-8.146V141.21
			c0-4.494,3.651-8.146,8.161-8.146h29.1c4.512,0,8.162,3.651,8.162,8.146V170.212z"/>
		<path fill="#1372AD" d="M182.268,228.244c0,4.495-3.65,8.139-8.162,8.139h-29.1c-4.51,0-8.161-3.644-8.161-8.139v-29.001
			c0-4.487,3.651-8.146,8.161-8.146h29.1c4.512,0,8.162,3.658,8.162,8.146V228.244z"/>
		<path fill="#1372AD" d="M182.268,286.285c0,4.479-3.65,8.139-8.162,8.139h-29.1c-4.51,0-8.161-3.659-8.161-8.139v-29.002
			c0-4.502,3.651-8.138,8.161-8.138h29.1c4.512,0,8.162,3.636,8.162,8.138V286.285z"/>
		<path fill="#1372AD" d="M182.268,344.318c0,4.487-3.65,8.13-8.162,8.13h-29.1c-4.51,0-8.161-3.643-8.161-8.13v-29.01
			c0-4.494,3.651-8.138,8.161-8.138h29.1c4.512,0,8.162,3.644,8.162,8.138V344.318z"/>
		<path fill="#1372AD" d="M240.612,286.285c0,4.479-3.659,8.139-8.177,8.139h-29.085c-4.51,0-8.169-3.659-8.169-8.139v-29.002
			c0-4.502,3.659-8.138,8.169-8.138h29.085c4.518,0,8.177,3.636,8.177,8.138V286.285z"/>
		<path fill="#1372AD" d="M240.612,344.318c0,4.487-3.659,8.13-8.177,8.13h-29.085c-4.51,0-8.169-3.643-8.169-8.13v-29.01
			c0-4.494,3.659-8.138,8.169-8.138h29.085c4.518,0,8.177,3.644,8.177,8.138V344.318z"/>
		<path fill="#1372AD" d="M299.481,286.285c0,4.479-3.65,8.139-8.169,8.139h-29.1c-4.51,0-8.169-3.659-8.169-8.139v-29.002
			c0-4.502,3.659-8.138,8.169-8.138h29.1c4.519,0,8.169,3.636,8.169,8.138V286.285z"/>
		<path fill="#1372AD" d="M299.481,344.318c0,4.487-3.65,8.13-8.169,8.13h-29.1c-4.51,0-8.169-3.643-8.169-8.13v-29.01
			c0-4.494,3.659-8.138,8.169-8.138h29.1c4.519,0,8.169,3.644,8.169,8.138V344.318z"/>
	</g>
</g>
</svg>
