<?xml version="1.0" encoding="utf-8"?>
<!-- Generator: Adobe Illustrator 15.1.0, SVG Export Plug-In  -->
<!DOCTYPE svg PUBLIC "-//W3C//DTD SVG 1.1//EN" "http://www.w3.org/Graphics/SVG/1.1/DTD/svg11.dtd" [
	<!ENTITY ns_flows "http://ns.adobe.com/Flows/1.0/">
]>
<svg version="1.1"
	 xmlns="http://www.w3.org/2000/svg" xmlns:xlink="http://www.w3.org/1999/xlink" xmlns:a="http://ns.adobe.com/AdobeSVGViewerExtensions/3.0/"
	 x="0px" y="0px" width="520px" height="520px" viewBox="-9.921 -6.162 520 520" enable-background="new -9.921 -6.162 520 520"
	 xml:space="preserve">
<defs>
</defs>
<g>
	<g>
		<path fill="#1372AD" d="M507.342,253.672c0,140.101-113.57,253.671-253.672,253.671C113.57,507.343,0,393.772,0,253.672
			S113.57,0,253.67,0C393.771,0,507.342,113.571,507.342,253.672z M253.67,20.003c-129.041,0-233.667,104.627-233.667,233.669
			c0,129.057,104.626,233.668,233.667,233.668c129.058,0,233.669-104.611,233.669-233.668
			C487.339,124.63,382.728,20.003,253.67,20.003z"/>
		<g>
			<path fill="#1372AD" d="M250.149,291.085l34.112,35.527l158.156-160.697c0,0,2.259-1.309,4.511,0.753
				c0,0,2.632,2.068,1.125,3.947l-69.723,71.975c0,0-2.821,2.829,1.688,6.959c0,0,4.062,4.389,7.431,2.13l71.512-78.622
				c0,0,5.064-6.571-1.697-12.397l-29.32-32.705c0,0-3.766-6.207-9.021-1.871L250.149,291.085z"/>
			<path fill="#1372AD" d="M200.399,322.384l-21.57,66.247l27.205-28.759c-2.258-11.705,6.48-18.041,6.48-18.041
				c10.436-8.738,18.179,0.563,18.179,0.563c10.717,10.86,0,20.019,0,20.019c-9.575,7.042-16.915,3.658-16.915,3.658l-28.181,28.194
				l62.293-22.551l27.921-38.06l-32.143-34.394L200.399,322.384z"/>
		</g>
		<path fill="#1372AD" d="M181.423,396.829c-9.857-0.441-19.791,2.64-29.701,0.076c-17.851-4.624-38.189-23.563-46.472-39.512
			c-8.177-15.744-14.201-37.673-6.085-54.535c7.56-15.706,24.399-24.741,38.501-33.617c15.622-9.827,33.131-18.749,38.942-37.46
			c4.138-13.355,5.978-34.781,0.434-48c-10.391-24.75-43.43-28.233-64.733-28.393c23.752,0,57.508-7.735,73.716,13.554
			c20.064,26.347,11.568,66.984-7.576,91.399c-14.839,18.931-44.007,32.676-51.521,55.683
			c-8.359,25.617,10.687,39.672,28.232,49.651C166.492,372.125,173.694,386.409,181.423,396.829"/>
	</g>
</g>
</svg>
