<?xml version="1.0" encoding="utf-8"?>
<!-- Generator: Adobe Illustrator 15.1.0, SVG Export Plug-In  -->
<!DOCTYPE svg PUBLIC "-//W3C//DTD SVG 1.1//EN" "http://www.w3.org/Graphics/SVG/1.1/DTD/svg11.dtd" [
	<!ENTITY ns_flows "http://ns.adobe.com/Flows/1.0/">
]>
<svg version="1.1"
	 xmlns="http://www.w3.org/2000/svg" xmlns:xlink="http://www.w3.org/1999/xlink" xmlns:a="http://ns.adobe.com/AdobeSVGViewerExtensions/3.0/"
	 x="0px" y="0px" width="520px" height="520px" viewBox="-9.917 -6.158 520 520" enable-background="new -9.917 -6.158 520 520"
	 xml:space="preserve">
<defs>
</defs>
<g>
	<g>
		<path fill="#1372AD" d="M507.343,253.676c0,140.101-113.572,253.671-253.672,253.671C113.57,507.347,0,393.776,0,253.676
			C0,113.571,113.57,0,253.671,0C393.771,0,507.343,113.571,507.343,253.676z M253.671,20.004
			c-129.042,0-233.668,104.619-233.668,233.672c0,129.041,104.626,233.668,233.668,233.668
			c129.057,0,233.668-104.627,233.668-233.668C487.339,124.623,382.728,20.004,253.671,20.004z"/>
		<g>
			<path fill="#1372AD" d="M161.435,321.618v109.746c0,0-2.297,21.828,29.875,22.406h129.855c0,0,24.126-1.156,23.548-26.43
				l0.016-105.723H161.435z"/>
			<path fill="#1372AD" d="M154.247,316.637h197.646c0,0,1.535-27.571-14.551-27.951h-166.24
				C171.103,288.686,153.099,290.982,154.247,316.637z"/>
			<rect x="233.729" y="91.225" fill="#1372AD" width="34.477" height="193.049"/>
			<polygon fill="#1372AD" points="233.729,87.202 268.205,87.202 251.64,46.408 			"/>
			<polygon fill="#1372AD" points="314.616,284.273 278.169,284.273 317.734,135.248 351.057,144.094 			"/>
			<polygon fill="#1372AD" points="318.77,131.361 352.091,140.207 346.546,96.527 			"/>
			<polygon fill="#1372AD" points="182.876,284.273 223.361,284.273 191.508,133.415 153.531,141.432 			"/>
			<polygon fill="#1372AD" points="190.679,129.482 152.702,137.496 162.507,93.735 			"/>
		</g>
	</g>
</g>
</svg>
