<?xml version="1.0" encoding="utf-8"?>
<!-- Generator: Adobe Illustrator 15.1.0, SVG Export Plug-In  -->
<!DOCTYPE svg PUBLIC "-//W3C//DTD SVG 1.1//EN" "http://www.w3.org/Graphics/SVG/1.1/DTD/svg11.dtd" [
	<!ENTITY ns_flows "http://ns.adobe.com/Flows/1.0/">
]>
<svg version="1.1"
	 xmlns="http://www.w3.org/2000/svg" xmlns:xlink="http://www.w3.org/1999/xlink" xmlns:a="http://ns.adobe.com/AdobeSVGViewerExtensions/3.0/"
	 x="0px" y="0px" width="520px" height="520px" viewBox="-6.666 -2.593 520 520" enable-background="new -6.666 -2.593 520 520"
	 xml:space="preserve">
<defs>
</defs>
<path fill="#1372AD" d="M508.255,254.129c0,140.352-113.775,254.127-254.127,254.127S0,394.48,0,254.129
	C0,113.776,113.775,0,254.128,0S508.255,113.776,508.255,254.129z M254.128,20.04C124.854,20.04,20.04,124.841,20.04,254.129
	c0,129.272,104.814,234.088,234.088,234.088c129.289,0,234.088-104.815,234.088-234.088
	C488.216,124.841,383.417,20.04,254.128,20.04z"/>
<g>
	<g>
		<path fill="#1372AD" d="M418.233,185.455l-31.52-32.579l6.349-44.874c0.971-6.864-3.675-13.261-10.504-14.458l-44.645-7.826
			l-21.251-40.052c-3.249-6.121-10.772-8.563-16.994-5.521l-40.715,19.902l-40.725-19.902c-6.228-3.043-13.745-0.599-16.995,5.524
			L179.99,85.718l-44.65,7.826c-6.828,1.197-11.476,7.594-10.504,14.458l6.348,44.874l-31.521,32.579
			c-4.819,4.983-4.819,12.889,0.001,17.87l31.52,32.576l-6.348,44.899c-0.969,6.861,3.676,13.259,10.504,14.455l35.733,6.264v138.97
			c0,4.452,2.307,8.589,6.095,10.929c2.063,1.276,4.406,1.921,6.755,1.921c1.963,0,3.932-0.449,5.747-1.356l69.284-34.629
			l69.273,34.629c3.982,1.99,8.714,1.778,12.501-0.564c3.789-2.342,6.094-6.478,6.094-10.931V301.521l35.737-6.268
			c6.827-1.198,11.473-7.594,10.504-14.456l-6.35-44.899l31.519-32.575C423.051,198.345,423.051,190.438,418.233,185.455z
			 M264.699,391.492c-3.615-1.808-7.873-1.81-11.492,0L196.773,419.7v-84.988l4.461,8.411c3.248,6.125,10.773,8.565,16.996,5.52
			l40.723-19.915l40.711,19.915c1.816,0.889,3.741,1.31,5.639,1.31c4.608,0,9.057-2.49,11.359-6.827l4.461-8.404V419.7
			L264.699,391.492z M363.874,222.545c-2.757,2.849-4.044,6.81-3.489,10.735l5.488,38.808l-38.584,6.766
			c-3.903,0.684-7.273,3.133-9.132,6.633l-18.368,34.608l-35.189-17.214c-1.782-0.869-3.715-1.307-5.647-1.307
			c-1.933,0-3.865,0.435-5.645,1.307l-35.198,17.214l-18.361-34.607c-1.857-3.501-5.228-5.95-9.131-6.634l-38.595-6.766l5.486-38.81
			c0.555-3.924-0.731-7.886-3.488-10.733l-27.243-28.156l27.244-28.16c2.755-2.848,4.042-6.81,3.487-10.733l-5.486-38.784
			l38.595-6.767c3.904-0.682,7.274-3.133,9.133-6.634l18.361-34.617l35.2,17.201c3.561,1.74,7.725,1.74,11.286,0l35.189-17.201
			l18.372,34.618c1.857,3.5,5.227,5.949,9.132,6.633l38.584,6.765l-5.488,38.784c-0.555,3.926,0.732,7.888,3.487,10.735
			l27.245,28.16L363.874,222.545z"/>
		<path fill="#1372AD" d="M258.952,106.524c-48.458,0-87.88,39.415-87.88,87.866c0,48.461,39.422,87.884,87.88,87.884
			c48.449,0,87.868-39.423,87.868-87.884C346.82,145.939,307.401,106.524,258.952,106.524z M258.952,256.576
			c-34.286,0-62.181-27.896-62.181-62.186c0-34.28,27.895-62.167,62.181-62.167c34.279,0,62.168,27.887,62.168,62.167
			C321.12,228.681,293.231,256.576,258.952,256.576z"/>
		<path fill="#1372AD" d="M285.146,161.791l-37.958,37.95l-14.445-14.428c-5.02-5.017-13.157-5.012-18.173,0.011
			c-5.015,5.021-5.01,13.156,0.012,18.172l23.529,23.502c2.508,2.507,5.794,3.759,9.081,3.759c3.288,0,6.577-1.254,9.085-3.763
			l47.039-47.028c5.02-5.017,5.02-13.153,0.001-18.173C298.301,156.774,290.165,156.773,285.146,161.791z"/>
	</g>
</g>
</svg>
