<?xml version="1.0" encoding="utf-8"?>
<!-- Generator: Adobe Illustrator 15.1.0, SVG Export Plug-In . SVG Version: 6.00 Build 0)  -->
<!DOCTYPE svg PUBLIC "-//W3C//DTD SVG 1.1//EN" "http://www.w3.org/Graphics/SVG/1.1/DTD/svg11.dtd">
<svg version="1.1" id="Capa_1" xmlns="http://www.w3.org/2000/svg" xmlns:xlink="http://www.w3.org/1999/xlink" x="0px" y="0px"
	 width="508px" height="508px" viewBox="-125.5 -126.5 508 508" enable-background="new -125.5 -126.5 508 508"
	 xml:space="preserve">
<g>
	<g>
		<path fill="#1372AD" d="M128.001,204.343c8.717,0,81.472-90.372,81.472-135.37c0-44.996-36.477-81.473-81.472-81.473
			c-44.998,0-81.474,36.478-81.474,81.473C46.528,113.971,119.6,204.343,128.001,204.343z M75.375,66.12
			c0-29.064,23.56-52.625,52.626-52.625c29.064,0,52.625,23.561,52.625,52.625c0,29.065-23.562,52.626-52.625,52.626
			C98.936,118.746,75.375,95.185,75.375,66.12z"/>
		<path fill="#1372AD" d="M272.7,142.074c0-7.504-6.105-13.609-13.608-13.609c0,0-36.326,0-49.62,0
			c-1.035,0-2.227-0.055-3.539,2.145c-2.618,4.395-2.389,4.009-4.847,8.076c-1.144,1.891,0.588,2.533,1.3,2.533
			c15.888,0,56.707,0,56.707,0c0.456,0,0.853,0.401,0.853,0.853L272.71,253.89c0,0.454-0.398,0.855-0.854,0.855H-15.85
			c-0.458,0-0.854-0.402-0.854-0.855l12.761-111.815c0-0.454,0.398-0.854,0.854-0.854c0,0,42.2,0,56.267,0
			c1.159,0,2.994-0.674,0.907-4.071c-2.448-3.984-1.499-2.817-4.093-7.227c-0.966-1.642-2.305-1.459-4.117-1.459
			c-12.241,0-48.963,0-48.963,0c-7.501,0-13.608,6.104-13.608,13.608l-12.764,111.818c0,7.506,6.105,13.609,13.61,13.609h287.704
			c7.505,0,13.607-6.104,13.607-13.609L272.7,142.074z"/>
	</g>
</g>
<g>
	<g>
		<path fill="#1372AD" d="M381.343,127.672c0,140.102-113.571,253.671-253.672,253.671C-12.43,381.343-126,267.771-126,127.672
			S-12.43-126,127.671-126C267.771-126,381.343-12.429,381.343,127.672z M127.671-105.997
			c-129.042,0-233.668,104.62-233.668,233.669c0,129.048,104.626,233.668,233.668,233.668c129.058,0,233.668-104.62,233.668-233.668
			C361.339-1.377,256.729-105.997,127.671-105.997z"/>
	</g>
</g>
</svg>
