<?xml version="1.0" encoding="utf-8"?>
<!-- Generator: Adobe Illustrator 15.1.0, SVG Export Plug-In . SVG Version: 6.00 Build 0)  -->
<!DOCTYPE svg PUBLIC "-//W3C//DTD SVG 1.1//EN" "http://www.w3.org/Graphics/SVG/1.1/DTD/svg11.dtd">
<svg version="1.1" id="Capa_1" xmlns="http://www.w3.org/2000/svg" xmlns:xlink="http://www.w3.org/1999/xlink" x="0px" y="0px"
	 width="510px" height="510px" viewBox="-127.5 -126.5 510 510" enable-background="new -127.5 -126.5 510 510"
	 xml:space="preserve">
<g>
	<path fill="#1372AD" d="M200.345-24.5H55.655c-6.652,0-12.062,5.412-12.062,12.065v284.373c0,6.654,5.409,12.063,12.062,12.063
		h144.689c6.653,0,12.06-5.408,12.06-12.063V-12.435C212.407-19.088,206.998-24.5,200.345-24.5z M116.17,258.037
		c0-6.537,5.291-11.836,11.83-11.836c6.548,0,11.83,5.299,11.83,11.836c0,6.539-5.282,11.836-11.83,11.836
		C121.46,269.873,116.17,264.576,116.17,258.037z M52.76,237.753V13.012h150.487v224.741H52.76z"/>
</g>
<g>
	<g>
		<path fill="#1372AD" d="M381.343,127.672c0,140.102-113.571,253.671-253.672,253.671C-12.43,381.343-126,267.771-126,127.672
			S-12.43-126,127.671-126C267.771-126,381.343-12.429,381.343,127.672z M127.671-105.997
			c-129.042,0-233.668,104.62-233.668,233.669c0,129.048,104.626,233.668,233.668,233.668c129.058,0,233.668-104.62,233.668-233.668
			C361.339-1.377,256.729-105.997,127.671-105.997z"/>
	</g>
</g>
</svg>
